<svg id="eyz443s9t7ch1" xmlns="http://www.w3.org/2000/svg" xmlns:xlink="http://www.w3.org/1999/xlink" viewBox="0 0 100 97" shape-rendering="geometricPrecision" text-rendering="geometricPrecision"><style><![CDATA[#eyz443s9t7ch18_to {animation: eyz443s9t7ch18_to__to 1000ms linear infinite normal forwards}@keyframes eyz443s9t7ch18_to__to { 0% {transform: translate(-30.474600px,-7.350700px);animation-timing-function: cubic-bezier(0.550000,0.085000,0.680000,0.530000)} 30% {transform: translate(-19.355050px,-13.234200px)} 50% {transform: translate(15.859000px,-9.583600px)} 100% {transform: translate(15.859000px,-9.583600px)} }#eyz443s9t7ch19_to {animation: eyz443s9t7ch19_to__to 1000ms linear infinite normal forwards}@keyframes eyz443s9t7ch19_to__to { 0% {transform: translate(-0.147500px,0px)} 20% {transform: translate(-0.147500px,0px);animation-timing-function: cubic-bezier(0.550000,0.085000,0.680000,0.530000)} 30% {transform: translate(-11.201631px,-1.381766px);animation-timing-function: cubic-bezier(0.550000,0.085000,0.680000,0.530000)} 50% {transform: translate(-30.960890px,2.625357px);animation-timing-function: cubic-bezier(0.550000,0.085000,0.680000,0.530000)} 70% {transform: translate(-34.138953px,15.752138px)} 100% {transform: translate(-34.138953px,15.752138px)} }#eyz443s9t7ch20_to {animation: eyz443s9t7ch20_to__to 1000ms linear infinite normal forwards}@keyframes eyz443s9t7ch20_to__to { 0% {transform: translate(-0.152900px,-23.583400px)} 10% {transform: translate(-0.152900px,-23.583400px);animation-timing-function: cubic-bezier(0.550000,0.085000,0.680000,0.530000)} 20% {transform: translate(-14.872250px,-25.816300px)} 30% {transform: translate(-11.820327px,-37.419500px)} 50% {transform: translate(-1.042549px,-56.487876px)} 60% {transform: translate(6.833519px,-55.244286px)} 100% {transform: translate(6.833519px,-55.244286px)} }#eyz443s9t7ch21_to {animation: eyz443s9t7ch21_to__to 1000ms linear infinite normal forwards}@keyframes eyz443s9t7ch21_to__to { 0% {transform: translate(-48.391700px,-15.467100px);animation-timing-function: cubic-bezier(0.550000,0.085000,0.680000,0.530000)} 50% {transform: translate(-42.795400px,-37.419500px)} 100% {transform: translate(-42.795400px,-37.419500px)} }]]></style><path id="eyz443s9t7ch2" d="M80.224800,56.067000C79.139400,55.984300,78.226300,56.663300,77.948200,57.765300C77.670100,58.867200,78.211400,59.662800,79.304900,59.740100L87.465400,60.363600C89.636200,60.528900,90.992900,62.503700,90.390500,64.890600C89.788100,67.277400,87.512900,68.975700,85.336800,68.810400L73.906600,67.938900C72.821300,67.856200,71.906900,68.535200,71.630100,69.637200C71.353300,70.739100,71.891900,71.534700,72.986800,71.612000L81.147300,72.234100C84.411500,72.483500,84.351800,75.660500,84.119800,76.579500L84.027600,76.946800C83.425200,79.332300,81.150000,81.030600,78.972500,80.863900L67.547800,79.992400C66.462400,79.908300,65.549400,80.587400,65.272600,81.689300C64.995800,82.791300,65.534500,83.586900,66.629300,83.664200L74.789800,84.287600C78.054000,84.537000,77.993000,87.715400,77.762400,88.624900L77.668700,88.992200C77.067700,91.379100,74.791200,93.076000,72.615100,92.910600L63.730100,92.232900C51.579500,91.304500,47.585400,91.000900,41.294400,88.836300L27.750500,83.876900L38.296100,42.010200L47.657300,38.606800C60.878300,33.815500,67.277800,23.823500,71.029100,17.745900C73.498300,13.815300,75.921300,10.073000,79.861200,11.309100C81.581500,11.814700,83.341100,13.633600,82.554200,16.755100L80.654800,24.283000C79.127200,30.342900,75.606600,36.249800,70.912400,40.946200L68.222100,43.541800C67.039000,44.574600,67.481300,46.478900,68.933000,46.590000L93.052300,48.432000C95.223000,48.598700,96.579700,50.573600,95.977300,52.961800C95.375000,55.350000,93.099800,57.045600,90.923700,56.878900L80.224800,56.067000Z" transform="matrix(1 0 0 1 -0.10210000000000 -0.03656791000000)" fill="rgb(151,50,154)" stroke="none" stroke-width="1"/><path id="eyz443s9t7ch3" d="M24.222700,36.256600C28.528900,36.771600,32.019600,36.851600,34.195800,37.018300C35.103400,37.087400,35.467000,37.115900,35.601300,37.312400L22.921600,87.624600L22.741200,87.609700L11.673300,86.765300C8.592230,86.529500,6.833960,83.963700,7.620840,80.842300L17.574900,41.363700C18.356400,38.240900,21.316700,36.035600,24.222700,36.256600Z" fill="rgb(151,50,154)" stroke="none" stroke-width="1"/><path id="eyz443s9t7ch4" d="M21.370300,84.470000L34.050000,34.152300C33.914300,33.955800,33.552100,33.927300,32.644500,33.858200C30.473800,33.691500,26.977500,33.611500,22.671400,33.096500C19.769400,32.875600,16.809100,35.080800,16.023600,38.203600L6.073590,77.687600C5.286710,80.805000,7.044990,83.380300,10.126000,83.610700L21.189900,84.455100L21.370300,84.470000ZM82.869300,21.604100C81.158500,28.397300,77.268900,35.022500,71.890900,40.229900L92.565600,41.809000C96.736100,42.127500,99.304300,45.875100,98.193200,50.285600C97.406300,53.403000,94.899100,56.023000,92.036500,57.114100C92.754200,58.666000,93.063500,60.375100,92.554700,62.400100C91.721700,65.704600,88.985300,68.489900,85.806500,69.370900C86.389900,70.726300,86.516100,72.419200,86.421100,73.534700L86.143000,74.636600C85.174300,77.745900,82.486700,80.346900,79.487100,81.240100C80.070400,82.595500,80.198000,84.289700,80.103000,85.405200L79.831700,86.507100C78.584900,90.708900,74.487600,93.772100,70.317200,93.453500L61.430800,92.775800C49.234100,92.031700,44.700000,91.691500,38.095700,89.310100L25.193500,84.766800C24.684700,86.787700,22.634800,88.315200,20.641800,88.155300L9.200770,87.283800C4.122670,86.894800,1.151500,82.550800,2.447150,77.411100L2.628950,77.424700L12.532800,38.129100C13.828500,32.986700,18.836000,29.252600,23.914100,29.640200C28.354600,30.353200,31.168400,30.194600,33.708100,30.388400C34.976600,30.484600,38.786200,30.776100,37.859600,34.447800L37.767300,34.815100L45.310600,32.023000C57.124700,27.685800,62.655900,18.936700,66.359700,13.047500C69.375600,8.410690,73.259800,2.530990,79.961900,4.539690C83.403800,5.550810,86.110400,8.752250,84.814800,13.891900L82.869300,21.604100ZM65.993400,76.836400L77.418100,77.707900C79.588800,77.874600,81.870800,76.176300,82.473200,73.790800L82.565400,73.423500C82.797400,72.504600,82.857100,69.327500,79.592900,69.078100L71.432400,68.456000C70.347000,68.372000,69.804300,67.583100,70.075700,66.481200C70.347000,65.379300,71.264100,64.700200,72.352200,64.782900L83.776900,65.655800C85.947600,65.821100,88.229600,64.124200,88.830600,61.736000C89.431600,59.347800,88.081700,57.374300,85.905600,57.208900L77.757300,56.585500C76.671900,56.502800,76.129200,55.712600,76.400600,54.610700C76.671900,53.508700,77.589000,52.829700,78.677100,52.912300L89.376000,53.725600C91.546700,53.892300,93.828700,52.194000,94.429700,49.808500C95.030700,47.423000,93.680800,45.445500,91.504700,45.278800L67.385300,43.440900C65.933700,43.329700,65.486000,41.425400,66.674400,40.392600L69.364800,37.791600C74.058900,33.095100,77.579600,27.188300,79.107200,21.128400L81.006600,13.600500C81.793400,10.483100,80.033800,8.660080,78.313500,8.154520C74.379100,6.918400,71.950600,10.663400,69.481400,14.591300C65.732900,20.668900,59.333400,30.660800,46.109600,35.452200L36.748500,38.855600L26.202900,80.722300L39.738600,85.685800C46.033700,87.854400,50.023700,88.154000,62.174300,89.082400L71.059300,89.760100C73.230000,89.925500,75.511900,88.228500,76.113000,85.841700L76.206600,85.474300C76.437200,84.558100,76.498300,81.379700,73.234000,81.137100L65.068100,80.506800C63.982700,80.424100,63.440100,79.633900,63.711400,78.532000C63.982700,77.430100,64.905300,76.752400,65.993400,76.836400Z" fill="rgb(151,50,154)" stroke="none" stroke-width="1"/><path id="eyz443s9t7ch5" d="M96.049100,46.152200C95.262200,49.269700,92.753700,51.889600,89.891100,52.982100C90.608800,54.534000,90.918100,56.241800,90.409300,58.268100C89.576300,61.568500,86.839900,64.353800,83.661100,65.228100C84.244500,66.583500,84.370700,68.277700,84.275700,69.393200L84.004400,70.495100C83.035700,73.601700,80.341300,76.202700,77.349800,77.095900C77.933200,78.451300,78.059300,80.145500,77.964400,81.261000L77.676800,82.368400C76.429900,86.578200,72.332700,89.634600,68.162300,89.316100L59.274500,88.638400C47.079200,87.893000,42.546500,87.547300,35.939400,85.171300L23.034500,80.630800C22.525800,82.648900,20.477200,84.177800,18.484200,84.019200L7.056730,83.146400C1.978620,82.758700,-0.992538,78.414700,0.303105,73.272300L0.484901,73.285900L10.388800,33.990300C11.684400,28.850600,16.692000,25.115200,21.770100,25.502800C26.210500,26.217100,29.024300,26.057200,31.564100,26.251000C32.832600,26.348600,36.639500,26.638600,35.714200,30.317200L35.621900,30.684500L43.166500,27.891000C54.980600,23.553800,60.513200,14.803300,64.215600,8.915500C67.230200,4.274630,71.113100,-1.603710,77.812400,0.404981C81.254400,1.417460,83.961000,4.618900,82.665300,9.757200L80.722500,17.469400C79.010400,24.264000,75.122100,30.887800,69.744200,36.095200L90.418800,37.674300C94.592000,37.994100,97.158900,41.745900,96.049100,46.152200ZM92.285600,45.679200C92.886700,43.291000,91.536700,41.316200,89.359300,41.149500L65.239900,39.307500C63.789600,39.196400,63.340600,37.292000,64.529000,36.260600L67.219300,33.658200C71.913500,28.964500,75.434100,23.055000,76.961800,16.996400L78.861100,9.467140C79.648000,6.349740,77.888400,4.528090,76.166700,4.022530C72.232300,2.785050,69.805200,6.530010,67.337400,10.459300C63.584800,16.535500,57.190700,26.527500,43.961500,31.321500L34.600300,34.722200L24.050700,76.589000L37.587800,81.552400C43.882900,83.721100,47.872900,84.023300,60.023400,84.950400L68.908400,85.628100C71.079100,85.794800,73.361100,84.096500,73.963500,81.708300L74.055700,81.341000C74.286400,80.424700,74.348800,77.246300,71.083200,77.003700L62.924100,76.380200C61.838700,76.297600,61.296000,75.507400,61.567400,74.405400C61.838700,73.303500,62.755800,72.624500,63.843900,72.708500L75.268600,73.580000C77.439300,73.746700,79.721300,72.048400,80.322300,69.662900L80.414600,69.295600C80.646600,68.378000,80.707600,65.199600,77.443400,64.951600L69.282900,64.328100C68.197500,64.244000,67.654900,63.455200,67.926200,62.353300C68.197500,61.251300,69.129600,60.566900,70.214900,60.649500L81.639700,61.522400C83.810400,61.689100,86.092300,59.990800,86.693400,57.604000C87.294400,55.217100,85.944500,53.241000,83.768300,53.075600L75.607800,52.452100C74.522400,52.369400,73.979800,51.579200,74.251100,50.477300C74.522400,49.375400,75.439600,48.696300,76.527600,48.779000L87.227900,49.592200C89.408100,49.763000,91.683300,48.064700,92.285600,45.679200ZM19.224900,80.338000L31.904600,30.025800C31.768900,29.827900,31.408000,29.799400,30.499100,29.730300C28.328300,29.564900,24.832100,29.486300,20.526000,28.968600C17.624000,28.747600,14.663700,30.955600,13.878200,34.075700L3.928190,73.554300C3.142670,76.671700,4.899590,79.246900,7.980640,79.478700L19.044500,80.324400L19.224900,80.338000Z" fill="rgb(151,50,154)" stroke="none" stroke-width="1"/><path id="eyz443s9t7ch6" d="M89.359400,41.149500C91.530100,41.316200,92.886800,43.291000,92.285800,45.679200C91.684700,48.067400,89.408200,49.763000,87.232100,49.596300L76.531800,48.783100C75.446500,48.700400,74.533400,49.379500,74.255300,50.481400C73.977200,51.583300,74.518500,52.379000,75.612000,52.456200L83.772500,53.079700C85.943200,53.245100,87.299900,55.219900,86.697500,57.608100C86.095200,59.996300,83.820000,61.693200,81.643800,61.526500L70.215000,60.649600C69.129700,60.566900,68.216600,61.245900,67.938500,62.347900C67.660400,63.449800,68.201700,64.245400,69.295200,64.322700L77.455700,64.946200C80.719900,65.194200,80.658900,68.372600,80.426900,69.290200L80.334600,69.657500C79.733600,72.043000,77.457100,73.741300,75.280900,73.574600L63.856200,72.703100C62.770900,72.619100,61.857800,73.298100,61.579700,74.400000C61.301600,75.502000,61.842900,76.297600,62.936400,76.374900L71.095500,76.998300C74.361100,77.247700,74.298700,80.426100,74.068100,81.335600L73.975800,81.702900C73.373400,84.091100,71.096900,85.789400,68.920800,85.622700L60.035800,84.945000C47.885200,84.017900,43.891100,83.713000,37.600100,81.547000L24.063000,76.583600L34.601800,34.722200L43.963000,31.321600C57.190800,26.527500,63.584900,16.535600,67.334800,10.459300C69.802600,6.528690,72.225700,2.785090,76.164200,4.022560C77.885800,4.528120,79.645400,6.347060,78.858600,9.467180L76.959200,16.996400C75.431500,23.055000,71.910900,28.964500,67.216800,33.658300L64.526400,36.260600C63.343400,37.292100,63.787000,39.196400,65.237300,39.307500L89.359400,41.149500Z" fill="rgb(212,154,214)" stroke="none" stroke-width="1"/><path id="eyz443s9t7ch7" d="M31.904400,30.025700L19.224700,80.338000L19.044300,80.324400L7.980440,79.478700C4.899390,79.244200,3.142470,76.675700,3.928000,73.554200L13.876600,34.075700C14.663500,30.958300,17.623800,28.747600,20.524400,28.968500C24.830600,29.486300,28.321400,29.564900,30.497500,29.730300C31.413300,29.799400,31.770100,29.827900,31.904400,30.025700Z" fill="rgb(212,154,214)" stroke="none" stroke-width="1"/><path id="eyz443s9t7ch8" d="M19.531600,28.277800L19.978700,28.383700L14.487200,51.570000L19.999000,60.756300L17.605900,71.718200L17.157100,71.620300L19.511300,60.836400L13.997100,51.646000L19.531600,28.277800Z" clip-rule="evenodd" fill="rgb(151,50,154)" fill-rule="evenodd" stroke="none" stroke-width="1"/><path id="eyz443s9t7ch9" d="M23.207000,50.941900L28.490300,28.889800L28.937100,28.996900L23.653800,51.049000L23.207000,50.941900Z" clip-rule="evenodd" fill="rgb(151,50,154)" fill-rule="evenodd" stroke="none" stroke-width="1"/><path id="eyz443s9t7ch10" d="M52.673800,37.112100L50.047500,48.312600L33.430000,57.731700L28.094000,78.999200L27.648400,78.887400L33.032300,57.429000L49.646100,48.012000L52.226500,37.007300L52.673800,37.112100Z" clip-rule="evenodd" fill="rgb(151,50,154)" fill-rule="evenodd" stroke="none" stroke-width="1"/><path id="eyz443s9t7ch11" d="M70.475700,10.778800L78.972700,11.870200L78.914200,12.325900L70.718900,11.273300L59.941300,29.716700L57.246900,42.215500L70.619200,43.492600L70.575500,43.950000L56.689000,42.623700L59.507600,29.548200L70.475700,10.778800Z" transform="matrix(1 0 0 1 0 -0.10765000000002)" clip-rule="evenodd" fill="rgb(151,50,154)" fill-rule="evenodd" stroke="none" stroke-width="1"/><path id="eyz443s9t7ch12" d="M51.944400,53.899200L88.537700,57.581500L88.491700,58.038600L52.037500,54.370300L42.068600,59.697200L41.852100,59.292000L51.944400,53.899200Z" clip-rule="evenodd" fill="rgb(151,50,154)" fill-rule="evenodd" stroke="none" stroke-width="1"/><path id="eyz443s9t7ch13" d="M60.095700,66.077800L72.531200,67.152500L72.491700,67.610200L60.118700,66.540900L40.692900,70.183200L37.512400,83.056700L37.066400,82.946500L40.317800,69.786200L60.095700,66.077800Z" clip-rule="evenodd" fill="rgb(151,50,154)" fill-rule="evenodd" stroke="none" stroke-width="1"/><path id="eyz443s9t7ch14" d="M72.678700,67.425800C72.678700,68.042400,72.178400,68.542200,71.561300,68.542200C70.944100,68.542200,70.443800,68.042400,70.443800,67.425800C70.443800,66.809200,70.944100,66.309300,71.561300,66.309300C72.178400,66.309300,72.678700,66.809200,72.678700,67.425800Z" fill="rgb(151,50,154)" stroke="none" stroke-width="1"/><path id="eyz443s9t7ch15" d="M23.169600,52.768900C23.617900,52.768900,23.980800,52.405900,23.980800,51.958700C23.980800,51.511500,23.617900,51.148500,23.169600,51.148500C22.721400,51.148500,22.358500,51.511500,22.358500,51.958700C22.358500,52.405900,22.721400,52.768900,23.169600,52.768900ZM23.169600,53.075100C23.786800,53.075100,24.287000,52.575300,24.287000,51.958700C24.287000,51.342100,23.786800,50.842300,23.169600,50.842300C22.552500,50.842300,22.052200,51.342100,22.052200,51.958700C22.052200,52.575300,22.552500,53.075100,23.169600,53.075100Z" clip-rule="evenodd" fill="rgb(151,50,154)" fill-rule="evenodd" stroke="none" stroke-width="1"/><path id="eyz443s9t7ch16" d="M41.086600,60.885200C41.534800,60.885200,41.897700,60.522200,41.897700,60.075100C41.897700,59.627900,41.534800,59.264900,41.086600,59.264900C40.638400,59.264900,40.275500,59.627900,40.275500,60.075100C40.275500,60.522200,40.638400,60.885200,41.086600,60.885200ZM41.086600,61.191500C41.703800,61.191500,42.204000,60.691600,42.204000,60.075100C42.204000,59.458500,41.703800,58.958600,41.086600,58.958600C40.469500,58.958600,39.969200,59.458500,39.969200,60.075100C39.969200,60.691600,40.469500,61.191500,41.086600,61.191500Z" clip-rule="evenodd" fill="rgb(151,50,154)" fill-rule="evenodd" stroke="none" stroke-width="1"/><path id="eyz443s9t7ch17" d="M71.408400,44.652500C71.856600,44.652500,72.219500,44.289500,72.219500,43.842300C72.219500,43.395100,71.856600,43.032200,71.408400,43.032200C70.960200,43.032200,70.597300,43.395100,70.597300,43.842300C70.597300,44.289500,70.960200,44.652500,71.408400,44.652500ZM71.408400,44.958800C72.025500,44.958800,72.525800,44.458900,72.525800,43.842300C72.525800,43.225700,72.025500,42.725900,71.408400,42.725900C70.791300,42.725900,70.291000,43.225700,70.291000,43.842300C70.291000,44.458900,70.791300,44.958800,71.408400,44.958800Z" clip-rule="evenodd" fill="rgb(151,50,154)" fill-rule="evenodd" stroke="none" stroke-width="1"/><g id="eyz443s9t7ch18_to" transform="translate(-30.474600,-7.350700)"><path id="eyz443s9t7ch18" d="M72.678700,67.425800C72.678700,68.042400,72.178400,68.542200,71.561300,68.542200C70.944100,68.542200,70.443800,68.042400,70.443800,67.425800C70.443800,66.809200,70.944100,66.309300,71.561300,66.309300C72.178400,66.309300,72.678700,66.809200,72.678700,67.425800Z" transform="translate(0,0)" fill="rgb(151,50,154)" stroke="none" stroke-width="1"/></g><g id="eyz443s9t7ch19_to" transform="translate(-0.147500,0)"><path id="eyz443s9t7ch19" d="M72.678700,67.425800C72.678700,68.042400,72.178400,68.542200,71.561300,68.542200C70.944100,68.542200,70.443800,68.042400,70.443800,67.425800C70.443800,66.809200,70.944100,66.309300,71.561300,66.309300C72.178400,66.309300,72.678700,66.809200,72.678700,67.425800Z" transform="translate(0,0)" fill="rgb(151,50,154)" stroke="none" stroke-width="1"/></g><g id="eyz443s9t7ch20_to" transform="translate(-0.152900,-23.583400)"><path id="eyz443s9t7ch20" d="M72.678700,67.425800C72.678700,68.042400,72.178400,68.542200,71.561300,68.542200C70.944100,68.542200,70.443800,68.042400,70.443800,67.425800C70.443800,66.809200,70.944100,66.309300,71.561300,66.309300C72.178400,66.309300,72.678700,66.809200,72.678700,67.425800Z" transform="translate(0,0)" fill="rgb(151,50,154)" stroke="none" stroke-width="1"/></g><g id="eyz443s9t7ch21_to" transform="translate(-48.391700,-15.467100)"><path id="eyz443s9t7ch21" d="M72.678700,67.425800C72.678700,68.042400,72.178400,68.542200,71.561300,68.542200C70.944100,68.542200,70.443800,68.042400,70.443800,67.425800C70.443800,66.809200,70.944100,66.309300,71.561300,66.309300C72.178400,66.309300,72.678700,66.809200,72.678700,67.425800Z" transform="translate(0,0)" fill="rgb(151,50,154)" stroke="none" stroke-width="1"/></g></svg>