<svg width="100" height="97" viewBox="0 0 100 97" fill="none" xmlns="http://www.w3.org/2000/svg">
<path d="M80.2248 56.067C79.1394 55.9843 78.2263 56.6633 77.9482 57.7653C77.6701 58.8672 78.2114 59.6628 79.3049 59.7401L87.4654 60.3636C89.6362 60.5289 90.9929 62.5037 90.3905 64.8906C89.7881 67.2774 87.5129 68.9757 85.3368 68.8104L73.9066 67.9389C72.8213 67.8562 71.9069 68.5352 71.6301 69.6372C71.3533 70.7391 71.8919 71.5347 72.9868 71.612L81.1473 72.2341C84.4115 72.4835 84.3518 75.6605 84.1198 76.5795L84.0276 76.9468C83.4252 79.3323 81.15 81.0306 78.9725 80.8639L67.5478 79.9924C66.4624 79.9083 65.5494 80.5874 65.2726 81.6893C64.9958 82.7913 65.5345 83.5869 66.6293 83.6642L74.7898 84.2876C78.054 84.537 77.993 87.7154 77.7624 88.6249L77.6687 88.9922C77.0677 91.3791 74.7912 93.076 72.6151 92.9106L63.7301 92.2329C51.5795 91.3045 47.5854 91.0009 41.2944 88.8363L27.7505 83.8769L38.2961 42.0102L47.6573 38.6068C60.8783 33.8155 67.2778 23.8235 71.0291 17.7459C73.4983 13.8153 75.9213 10.073 79.8612 11.3091C81.5815 11.8147 83.3411 13.6336 82.5542 16.7551L80.6548 24.283C79.1272 30.3429 75.6066 36.2498 70.9124 40.9462L68.2221 43.5418C67.039 44.5746 67.4813 46.4789 68.933 46.59L93.0523 48.432C95.223 48.5987 96.5797 50.5736 95.9773 52.9618C95.375 55.35 93.0998 57.0456 90.9237 56.8789L80.2248 56.067Z" fill="#97329A"/>
<path d="M24.2227 36.2566C28.5289 36.7716 32.0196 36.8516 34.1958 37.0183C35.1034 37.0874 35.467 37.1159 35.6013 37.3124L22.9216 87.6246L22.7412 87.6097L11.6733 86.7653C8.59223 86.5295 6.83396 83.9637 7.62084 80.8423L17.5749 41.3637C18.3564 38.2409 21.3167 36.0356 24.2227 36.2566Z" fill="#97329A"/>
<path d="M21.3703 84.47L34.05 34.1523C33.9143 33.9558 33.5521 33.9273 32.6445 33.8582C30.4738 33.6915 26.9775 33.6115 22.6714 33.0965C19.7694 32.8756 16.8091 35.0808 16.0236 38.2036L6.07359 77.6876C5.28671 80.805 7.04499 83.3803 10.126 83.6107L21.1899 84.4551L21.3703 84.47ZM82.8693 21.6041C81.1585 28.3973 77.2689 35.0225 71.8909 40.2299L92.5656 41.809C96.7361 42.1275 99.3043 45.8751 98.1932 50.2856C97.4063 53.403 94.8991 56.023 92.0365 57.1141C92.7542 58.666 93.0635 60.3751 92.5547 62.4001C91.7217 65.7046 88.9853 68.4899 85.8065 69.3709C86.3899 70.7263 86.5161 72.4192 86.4211 73.5347L86.143 74.6366C85.1743 77.7459 82.4867 80.3469 79.4871 81.2401C80.0704 82.5955 80.198 84.2897 80.103 85.4052L79.8317 86.5071C78.5849 90.7089 74.4876 93.7721 70.3172 93.4535L61.4308 92.7758C49.2341 92.0317 44.7 91.6915 38.0957 89.3101L25.1935 84.7668C24.6847 86.7877 22.6348 88.3152 20.6418 88.1553L9.20077 87.2838C4.12267 86.8948 1.1515 82.5508 2.44715 77.4111L2.62895 77.4247L12.5328 38.1291C13.8285 32.9867 18.836 29.2526 23.9141 29.6402C28.3546 30.3532 31.1684 30.1946 33.7081 30.3884C34.9766 30.4846 38.7862 30.7761 37.8596 34.4478L37.7673 34.8151L45.3106 32.023C57.1247 27.6858 62.6559 18.9367 66.3597 13.0475C69.3756 8.41069 73.2598 2.53099 79.9619 4.53969C83.4038 5.55081 86.1104 8.75225 84.8148 13.8919L82.8693 21.6041ZM65.9934 76.8364L77.4181 77.7079C79.5888 77.8746 81.8708 76.1763 82.4732 73.7908L82.5654 73.4235C82.7974 72.5046 82.8571 69.3275 79.5929 69.0781L71.4324 68.456C70.347 68.372 69.8043 67.5831 70.0757 66.4812C70.347 65.3793 71.2641 64.7002 72.3522 64.7829L83.7769 65.6558C85.9476 65.8211 88.2296 64.1242 88.8306 61.736C89.4316 59.3478 88.0817 57.3743 85.9056 57.2089L77.7573 56.5855C76.6719 56.5028 76.1292 55.7126 76.4006 54.6107C76.6719 53.5087 77.589 52.8297 78.6771 52.9123L89.376 53.7256C91.5467 53.8923 93.8287 52.194 94.4297 49.8085C95.0307 47.423 93.6808 45.4455 91.5047 45.2788L67.3853 43.4409C65.9337 43.3297 65.486 41.4254 66.6744 40.3926L69.3648 37.7916C74.0589 33.0951 77.5796 27.1883 79.1072 21.1284L81.0066 13.6005C81.7934 10.4831 80.0338 8.66008 78.3135 8.15452C74.3791 6.9184 71.9506 10.6634 69.4814 14.5913C65.7329 20.6689 59.3334 30.6608 46.1096 35.4522L36.7485 38.8556L26.2029 80.7223L39.7386 85.6858C46.0337 87.8544 50.0237 88.154 62.1743 89.0824L71.0593 89.7601C73.23 89.9255 75.5119 88.2285 76.113 85.8417L76.2066 85.4743C76.4372 84.5581 76.4983 81.3797 73.234 81.1371L65.0681 80.5068C63.9827 80.4241 63.4401 79.6339 63.7114 78.532C63.9827 77.4301 64.9053 76.7524 65.9934 76.8364Z" fill="#97329A"/>
<path d="M96.0491 46.1522C95.2622 49.2697 92.7537 51.8896 89.8911 52.9821C90.6088 54.534 90.9181 56.2418 90.4093 58.2681C89.5763 61.5685 86.8399 64.3538 83.6611 65.2281C84.2445 66.5835 84.3707 68.2777 84.2757 69.3932L84.0044 70.4951C83.0357 73.6017 80.3413 76.2027 77.3498 77.0959C77.9332 78.4513 78.0593 80.1455 77.9644 81.261L77.6768 82.3684C76.4299 86.5782 72.3327 89.6346 68.1623 89.3161L59.2745 88.6384C47.0792 87.893 42.5465 87.5473 35.9394 85.1713L23.0345 80.6308C22.5258 82.6489 20.4772 84.1778 18.4842 84.0192L7.05673 83.1464C1.97862 82.7587 -0.992538 78.4147 0.303105 73.2723L0.484901 73.2859L10.3888 33.9903C11.6844 28.8506 16.692 25.1152 21.7701 25.5028C26.2105 26.2171 29.0243 26.0572 31.5641 26.251C32.8326 26.3486 36.6395 26.6386 35.7142 30.3172L35.6219 30.6845L43.1665 27.891C54.9806 23.5538 60.5132 14.8033 64.2156 8.9155C67.2302 4.27463 71.1131 -1.60371 77.8124 0.404981C81.2544 1.41746 83.961 4.6189 82.6653 9.7572L80.7225 17.4694C79.0104 24.264 75.1221 30.8878 69.7442 36.0952L90.4188 37.6743C94.592 37.9941 97.1589 41.7459 96.0491 46.1522ZM92.2856 45.6792C92.8867 43.291 91.5367 41.3162 89.3593 41.1495L65.2399 39.3075C63.7896 39.1964 63.3406 37.292 64.529 36.2606L67.2193 33.6582C71.9135 28.9645 75.4341 23.055 76.9618 16.9964L78.8611 9.46714C79.648 6.34974 77.8884 4.52809 76.1667 4.02253C72.2323 2.78505 69.8052 6.53001 67.3374 10.4593C63.5848 16.5355 57.1907 26.5275 43.9615 31.3215L34.6003 34.7222L24.0507 76.589L37.5878 81.5524C43.8829 83.7211 47.8729 84.0233 60.0234 84.9504L68.9084 85.6281C71.0791 85.7948 73.3611 84.0965 73.9635 81.7083L74.0557 81.341C74.2864 80.4247 74.3488 77.2463 71.0832 77.0037L62.9241 76.3802C61.8387 76.2976 61.296 75.5074 61.5674 74.4054C61.8387 73.3035 62.7558 72.6245 63.8439 72.7085L75.2686 73.58C77.4393 73.7467 79.7213 72.0484 80.3223 69.6629L80.4146 69.2956C80.6466 68.378 80.7076 65.1996 77.4434 64.9516L69.2829 64.3281C68.1975 64.244 67.6549 63.4552 67.9262 62.3533C68.1975 61.2513 69.1296 60.5669 70.2149 60.6495L81.6397 61.5224C83.8104 61.6891 86.0923 59.9908 86.6934 57.604C87.2944 55.2171 85.9445 53.241 83.7683 53.0756L75.6078 52.4521C74.5224 52.3694 73.9798 51.5792 74.2511 50.4773C74.5224 49.3754 75.4396 48.6963 76.5276 48.779L87.2279 49.5922C89.4081 49.763 91.6833 48.0647 92.2856 45.6792ZM19.2249 80.338L31.9046 30.0258C31.7689 29.8279 31.408 29.7994 30.4991 29.7303C28.3283 29.5649 24.8321 29.4863 20.526 28.9686C17.624 28.7476 14.6637 30.9556 13.8782 34.0757L3.92819 73.5543C3.14267 76.6717 4.89959 79.2469 7.98064 79.4787L19.0445 80.3244L19.2249 80.338Z" fill="#97329A"/>
<path d="M89.3594 41.1495C91.5301 41.3162 92.8868 43.291 92.2858 45.6792C91.6847 48.0674 89.4082 49.763 87.2321 49.5963L76.5318 48.7831C75.4465 48.7004 74.5334 49.3795 74.2553 50.4814C73.9772 51.5833 74.5185 52.379 75.612 52.4562L83.7725 53.0797C85.9432 53.2451 87.2999 55.2199 86.6975 57.6081C86.0952 59.9963 83.82 61.6932 81.6438 61.5265L70.215 60.6496C69.1297 60.5669 68.2166 61.2459 67.9385 62.3479C67.6604 63.4498 68.2017 64.2454 69.2952 64.3227L77.4557 64.9462C80.7199 65.1942 80.6589 68.3726 80.4269 69.2902L80.3346 69.6575C79.7336 72.043 77.4571 73.7413 75.2809 73.5746L63.8562 72.7031C62.7709 72.6191 61.8578 73.2981 61.5797 74.4C61.3016 75.502 61.8429 76.2976 62.9364 76.3749L71.0955 76.9983C74.3611 77.2477 74.2987 80.4261 74.0681 81.3356L73.9758 81.7029C73.3734 84.0911 71.0969 85.7894 68.9208 85.6227L60.0358 84.945C47.8852 84.0179 43.8911 83.713 37.6001 81.547L24.063 76.5836L34.6018 34.7222L43.963 31.3216C57.1908 26.5275 63.5849 16.5356 67.3348 10.4593C69.8026 6.52869 72.2257 2.78509 76.1642 4.02256C77.8858 4.52812 79.6454 6.34706 78.8586 9.46718L76.9592 16.9964C75.4315 23.055 71.9109 28.9645 67.2168 33.6583L64.5264 36.2606C63.3434 37.2921 63.787 39.1964 65.2373 39.3075L89.3594 41.1495Z" fill="#D49AD6"/>
<path d="M31.9044 30.0257L19.2247 80.338L19.0443 80.3244L7.98044 79.4787C4.89939 79.2442 3.14247 76.6757 3.928 73.5542L13.8766 34.0757C14.6635 30.9583 17.6238 28.7476 20.5244 28.9685C24.8306 29.4863 28.3214 29.5649 30.4975 29.7303C31.4133 29.7994 31.7701 29.8279 31.9044 30.0257Z" fill="#D49AD6"/>
<path fill-rule="evenodd" clip-rule="evenodd" d="M19.5316 28.2778L19.9787 28.3837L14.4872 51.57L19.999 60.7563L17.6059 71.7182L17.1571 71.6203L19.5113 60.8364L13.9971 51.646L19.5316 28.2778Z" fill="#97329A"/>
<path fill-rule="evenodd" clip-rule="evenodd" d="M23.207 50.9419L28.4903 28.8898L28.9371 28.9969L23.6538 51.049L23.207 50.9419Z" fill="#97329A"/>
<path fill-rule="evenodd" clip-rule="evenodd" d="M52.6738 37.1121L50.0475 48.3126L33.43 57.7317L28.094 78.9992L27.6484 78.8874L33.0323 57.429L49.6461 48.012L52.2265 37.0073L52.6738 37.1121Z" fill="#97329A"/>
<path fill-rule="evenodd" clip-rule="evenodd" d="M70.4757 10.7788L78.9727 11.8702L78.9142 12.3259L70.7189 11.2733L59.9413 29.7167L57.2469 42.2155L70.6192 43.4926L70.5755 43.95L56.689 42.6237L59.5076 29.5482L70.4757 10.7788Z" fill="#97329A"/>
<path fill-rule="evenodd" clip-rule="evenodd" d="M51.9444 53.8992L88.5377 57.5815L88.4917 58.0386L52.0375 54.3703L42.0686 59.6972L41.8521 59.292L51.9444 53.8992Z" fill="#97329A"/>
<path fill-rule="evenodd" clip-rule="evenodd" d="M60.0957 66.0778L72.5312 67.1525L72.4917 67.6102L60.1187 66.5409L40.6929 70.1832L37.5124 83.0567L37.0664 82.9465L40.3178 69.7862L60.0957 66.0778Z" fill="#97329A"/>
<path d="M72.6787 67.4258C72.6787 68.0424 72.1784 68.5422 71.5613 68.5422C70.9441 68.5422 70.4438 68.0424 70.4438 67.4258C70.4438 66.8092 70.9441 66.3093 71.5613 66.3093C72.1784 66.3093 72.6787 66.8092 72.6787 67.4258Z" fill="#97329A"/>
<path d="M53.5365 37.1042C53.5365 37.7208 53.0362 38.2206 52.4191 38.2206C51.802 38.2206 51.3018 37.7208 51.3018 37.1042C51.3018 36.4876 51.802 35.9877 52.4191 35.9877C53.0362 35.9877 53.5365 36.4876 53.5365 37.1042Z" fill="#97329A"/>
<path d="M18.4677 71.7137C18.4677 72.3303 17.9674 72.8301 17.3503 72.8301C16.7332 72.8301 16.2329 72.3303 16.2329 71.7137C16.2329 71.0971 16.7332 70.5972 17.3503 70.5972C17.9674 70.5972 18.4677 71.0971 18.4677 71.7137Z" fill="#97329A"/>
<path fill-rule="evenodd" clip-rule="evenodd" d="M23.1696 52.7689C23.6179 52.7689 23.9808 52.4059 23.9808 51.9587C23.9808 51.5115 23.6179 51.1485 23.1696 51.1485C22.7214 51.1485 22.3585 51.5115 22.3585 51.9587C22.3585 52.4059 22.7214 52.7689 23.1696 52.7689ZM23.1696 53.0751C23.7868 53.0751 24.287 52.5753 24.287 51.9587C24.287 51.3421 23.7868 50.8423 23.1696 50.8423C22.5525 50.8423 22.0522 51.3421 22.0522 51.9587C22.0522 52.5753 22.5525 53.0751 23.1696 53.0751Z" fill="#97329A"/>
<path fill-rule="evenodd" clip-rule="evenodd" d="M71.4084 44.6525C71.8566 44.6525 72.2195 44.2895 72.2195 43.8423C72.2195 43.3951 71.8566 43.0322 71.4084 43.0322C70.9602 43.0322 70.5973 43.3951 70.5973 43.8423C70.5973 44.2895 70.9602 44.6525 71.4084 44.6525ZM71.4084 44.9588C72.0255 44.9588 72.5258 44.4589 72.5258 43.8423C72.5258 43.2257 72.0255 42.7259 71.4084 42.7259C70.7913 42.7259 70.291 43.2257 70.291 43.8423C70.291 44.4589 70.7913 44.9588 71.4084 44.9588Z" fill="#97329A"/>
<path fill-rule="evenodd" clip-rule="evenodd" d="M41.0866 60.8852C41.5348 60.8852 41.8977 60.5222 41.8977 60.0751C41.8977 59.6279 41.5348 59.2649 41.0866 59.2649C40.6384 59.2649 40.2755 59.6279 40.2755 60.0751C40.2755 60.5222 40.6384 60.8852 41.0866 60.8852ZM41.0866 61.1915C41.7038 61.1915 42.204 60.6916 42.204 60.0751C42.204 59.4585 41.7038 58.9586 41.0866 58.9586C40.4695 58.9586 39.9692 59.4585 39.9692 60.0751C39.9692 60.6916 40.4695 61.1915 41.0866 61.1915Z" fill="#97329A"/>
</svg>
