<svg id="ekpu3k1lkd0s1" xmlns="http://www.w3.org/2000/svg" xmlns:xlink="http://www.w3.org/1999/xlink" viewBox="0 0 100 97" shape-rendering="geometricPrecision" text-rendering="geometricPrecision"><style><![CDATA[#ekpu3k1lkd0s14_to {animation: ekpu3k1lkd0s14_to__to 3000ms linear infinite normal forwards}@keyframes ekpu3k1lkd0s14_to__to { 0% {transform: translate(71.561749px,67.425751px)} 16.666667% {transform: translate(59.362758px,66.077801px)} 43.333333% {transform: translate(40.161099px,70.601751px)} 76.666667% {transform: translate(38.183849px,80.338001px)} 100% {transform: translate(38.183849px,80.505739px)} }#ekpu3k1lkd0s15_to {animation: ekpu3k1lkd0s15_to__to 3000ms linear infinite normal forwards}@keyframes ekpu3k1lkd0s15_to__to { 0% {transform: translate(52.419149px,37.104151px)} 33.333333% {transform: translate(49.999999px,47.689060px)} 63.333333% {transform: translate(33.021749px,57.842251px)} 100% {transform: translate(27.819749px,77.882751px)} }#ekpu3k1lkd0s16_to {animation: ekpu3k1lkd0s16_to__to 3000ms linear infinite normal forwards}@keyframes ekpu3k1lkd0s16_to__to { 0% {transform: translate(17.349800px,71.713650px);animation-timing-function: cubic-bezier(0.420000,0,0.580000,1)} 33.333333% {transform: translate(19.999000px,60.075150px)} 63.333333% {transform: translate(13.997100px,51.958650px)} 100% {transform: translate(19.999000px,29.394250px)} }]]></style><path id="ekpu3k1lkd0s2" d="M80.224300,56.066900C79.138900,55.984300,78.225900,56.663300,77.947700,57.765300C77.669600,58.867200,78.210900,59.662800,79.304400,59.740100L87.465000,60.363500C89.635700,60.528900,90.992400,62.503700,90.390000,64.890600C89.787600,67.277400,87.512400,68.975700,85.336300,68.810400L73.906100,67.938800C72.820800,67.856200,71.906400,68.535200,71.629600,69.637200C71.352800,70.739100,71.891400,71.534700,72.986300,71.612000L81.146800,72.234100C84.411000,72.483500,84.351300,75.660500,84.119300,76.579500L84.027100,76.946800C83.424700,79.332300,81.149500,81.030600,78.972000,80.863900L67.547300,79.992400C66.462000,79.908300,65.548900,80.587400,65.272100,81.689300C64.995400,82.791300,65.534000,83.586900,66.628800,83.664100L74.789300,84.287600C78.053600,84.537000,77.992500,87.715400,77.761900,88.624900L77.668300,88.992200C77.067200,91.379000,74.790700,93.076000,72.614600,92.910600L63.729600,92.232900C51.579000,91.304500,47.584900,91.000900,41.293900,88.836300L27.750000,83.876900L38.295600,42.010200L47.656800,38.606800C60.877800,33.815400,67.277300,23.823500,71.028600,17.745900C73.497800,13.815300,75.920800,10.073000,79.860700,11.309100C81.581000,11.814700,83.340600,13.633600,82.553700,16.755100L80.654300,24.283000C79.126700,30.342900,75.606100,36.249700,70.911900,40.946200L68.221600,43.541800C67.038500,44.574600,67.480800,46.478900,68.932500,46.590000L93.051800,48.432000C95.222500,48.598700,96.579200,50.573500,95.976900,52.961700C95.374500,55.349900,93.099300,57.045600,90.923200,56.878800L80.224300,56.066900Z" fill="rgb(151,50,154)" stroke="none" stroke-width="1"/><path id="ekpu3k1lkd0s3" d="M24.222700,36.256600C28.528900,36.771600,32.019600,36.851600,34.195800,37.018300C35.103400,37.087400,35.467000,37.115900,35.601300,37.312400L22.921600,87.624600L22.741200,87.609700L11.673300,86.765300C8.592230,86.529500,6.833960,83.963700,7.620840,80.842300L17.574900,41.363700C18.356400,38.240900,21.316700,36.035600,24.222700,36.256600Z" fill="rgb(151,50,154)" stroke="none" stroke-width="1"/><path id="ekpu3k1lkd0s4" d="M21.369800,84.470000L34.049500,34.152300C33.913800,33.955800,33.551600,33.927300,32.644000,33.858200C30.473300,33.691500,26.977100,33.611500,22.670900,33.096500C19.768900,32.875600,16.808600,35.080800,16.023100,38.203600L6.073110,77.687600C5.286220,80.805000,7.044500,83.380300,10.125600,83.610700L21.189400,84.455100L21.369800,84.470000ZM82.868800,21.604100C81.158000,28.397300,77.268400,35.022500,71.890400,40.229900L92.565100,41.809000C96.735600,42.127500,99.303800,45.875100,98.192700,50.285600C97.405800,53.403000,94.898600,56.023000,92.036000,57.114100C92.753700,58.666000,93.063000,60.375100,92.554300,62.400100C91.721200,65.704600,88.984800,68.489900,85.806100,69.370900C86.389400,70.726300,86.515600,72.419200,86.420600,73.534700L86.142500,74.636600C85.173800,77.745900,82.486200,80.346900,79.486600,81.240100C80.069900,82.595500,80.197500,84.289700,80.102500,85.405200L79.831200,86.507100C78.584400,90.708900,74.487100,93.772100,70.316700,93.453500L61.430300,92.775800C49.233600,92.031700,44.699600,91.691500,38.095200,89.310100L25.193000,84.766800C24.684200,86.787700,22.634300,88.315200,20.641300,88.155300L9.200290,87.283800C4.122180,86.894800,1.151020,82.550800,2.446660,77.411100L2.628460,77.424700L12.532300,38.129100C13.828000,32.986700,18.835500,29.252600,23.913600,29.640200C28.354100,30.353200,31.167900,30.194600,33.707600,30.388400C34.976100,30.484600,38.785700,30.776100,37.859100,34.447800L37.766800,34.815100L45.310100,32.023000C57.124200,27.685800,62.655400,18.936700,66.359200,13.047500C69.375100,8.410690,73.259300,2.530990,79.961400,4.539690C83.403400,5.550810,86.110000,8.752250,84.814300,13.891900L82.868800,21.604100ZM65.992900,76.836400L77.417600,77.707900C79.588300,77.874600,81.870300,76.176300,82.472700,73.790800L82.564900,73.423500C82.796900,72.504600,82.856600,69.327500,79.592400,69.078100L71.431900,68.456000C70.346500,68.372000,69.803800,67.583100,70.075200,66.481200C70.346500,65.379300,71.263600,64.700200,72.351700,64.782900L83.776400,65.655800C85.947200,65.821100,88.229100,64.124200,88.830100,61.736000C89.431100,59.347800,88.081200,57.374300,85.905100,57.208900L77.756800,56.585500C76.671400,56.502800,76.128800,55.712600,76.400100,54.610700C76.671400,53.508700,77.588600,52.829700,78.676600,52.912300L89.375500,53.725600C91.546200,53.892300,93.828200,52.194000,94.429200,49.808500C95.030200,47.423000,93.680300,45.445500,91.504200,45.278800L67.384800,43.440900C65.933200,43.329700,65.485500,41.425400,66.673900,40.392600L69.364300,37.791600C74.058400,33.095100,77.579100,27.188300,79.106700,21.128400L81.006100,13.600500C81.793000,10.483100,80.033300,8.660080,78.313000,8.154520C74.378600,6.918400,71.950100,10.663400,69.480900,14.591300C65.732400,20.668900,59.332900,30.660800,46.109200,35.452200L36.748000,38.855600L26.202400,80.722300L39.738100,85.685800C46.033200,87.854400,50.023200,88.154000,62.173800,89.082400L71.058800,89.760100C73.229500,89.925500,75.511500,88.228500,76.112500,85.841700L76.206100,85.474300C76.436700,84.558100,76.497800,81.379700,73.233600,81.137100L65.067600,80.506800C63.982300,80.424100,63.439600,79.633900,63.710900,78.532000C63.982300,77.430100,64.904800,76.752400,65.992900,76.836400Z" fill="rgb(151,50,154)" stroke="none" stroke-width="1"/><path id="ekpu3k1lkd0s5" d="M96.049100,46.152200C95.262200,49.269700,92.753700,51.889600,89.891100,52.982100C90.608800,54.534000,90.918100,56.241800,90.409300,58.268100C89.576300,61.568500,86.839900,64.353800,83.661100,65.228100C84.244500,66.583500,84.370700,68.277700,84.275700,69.393200L84.004400,70.495100C83.035700,73.601700,80.341300,76.202700,77.349800,77.095900C77.933200,78.451300,78.059300,80.145500,77.964400,81.261000L77.676800,82.368400C76.429900,86.578200,72.332700,89.634600,68.162300,89.316100L59.274500,88.638400C47.079200,87.893000,42.546500,87.547300,35.939400,85.171300L23.034500,80.630800C22.525800,82.648900,20.477200,84.177800,18.484200,84.019200L7.056730,83.146400C1.978620,82.758700,-0.992538,78.414700,0.303105,73.272300L0.484901,73.285900L10.388800,33.990300C11.684400,28.850600,16.692000,25.115200,21.770100,25.502800C26.210500,26.217100,29.024300,26.057200,31.564100,26.251000C32.832600,26.348600,36.639500,26.638600,35.714200,30.317200L35.621900,30.684500L43.166500,27.891000C54.980600,23.553800,60.513200,14.803300,64.215600,8.915500C67.230200,4.274630,71.113100,-1.603710,77.812400,0.404981C81.254400,1.417460,83.961000,4.618900,82.665300,9.757200L80.722500,17.469400C79.010400,24.264000,75.122100,30.887800,69.744200,36.095200L90.418800,37.674300C94.592000,37.994100,97.158900,41.745900,96.049100,46.152200ZM92.285600,45.679200C92.886700,43.291000,91.536700,41.316200,89.359300,41.149500L65.239900,39.307500C63.789600,39.196400,63.340600,37.292000,64.529000,36.260600L67.219300,33.658200C71.913500,28.964500,75.434100,23.055000,76.961800,16.996400L78.861100,9.467140C79.648000,6.349740,77.888400,4.528090,76.166700,4.022530C72.232300,2.785050,69.805200,6.530010,67.337400,10.459300C63.584800,16.535500,57.190700,26.527500,43.961500,31.321500L34.600300,34.722200L24.050700,76.589000L37.587800,81.552400C43.882900,83.721100,47.872900,84.023300,60.023400,84.950400L68.908400,85.628100C71.079100,85.794800,73.361100,84.096500,73.963500,81.708300L74.055700,81.341000C74.286400,80.424700,74.348800,77.246300,71.083200,77.003700L62.924100,76.380200C61.838700,76.297600,61.296000,75.507400,61.567400,74.405400C61.838700,73.303500,62.755800,72.624500,63.843900,72.708500L75.268600,73.580000C77.439300,73.746700,79.721300,72.048400,80.322300,69.662900L80.414600,69.295600C80.646600,68.378000,80.707600,65.199600,77.443400,64.951600L69.282900,64.328100C68.197500,64.244000,67.654900,63.455200,67.926200,62.353300C68.197500,61.251300,69.129600,60.566900,70.214900,60.649500L81.639700,61.522400C83.810400,61.689100,86.092300,59.990800,86.693400,57.604000C87.294400,55.217100,85.944500,53.241000,83.768300,53.075600L75.607800,52.452100C74.522400,52.369400,73.979800,51.579200,74.251100,50.477300C74.522400,49.375400,75.439600,48.696300,76.527600,48.779000L87.227900,49.592200C89.408100,49.763000,91.683300,48.064700,92.285600,45.679200ZM19.224900,80.338000L31.904600,30.025800C31.768900,29.827900,31.408000,29.799400,30.499100,29.730300C28.328300,29.564900,24.832100,29.486300,20.526000,28.968600C17.624000,28.747600,14.663700,30.955600,13.878200,34.075700L3.928190,73.554300C3.142670,76.671700,4.899590,79.246900,7.980640,79.478700L19.044500,80.324400L19.224900,80.338000Z" fill="rgb(151,50,154)" stroke="none" stroke-width="1"/><path id="ekpu3k1lkd0s6" d="M89.358900,41.149500C91.529600,41.316200,92.886300,43.291000,92.285300,45.679200C91.684300,48.067400,89.407700,49.763000,87.231600,49.596300L76.531300,48.783100C75.446000,48.700400,74.532900,49.379500,74.254800,50.481400C73.976700,51.583300,74.518000,52.378900,75.611500,52.456200L83.772000,53.079700C85.942700,53.245000,87.299400,55.219900,86.697000,57.608100C86.094700,59.996300,83.819500,61.693200,81.643400,61.526500L70.214600,60.649600C69.129200,60.566900,68.216100,61.245900,67.938000,62.347900C67.659900,63.449800,68.201200,64.245400,69.294700,64.322700L77.455200,64.946200C80.719400,65.194200,80.658400,68.372600,80.426400,69.290200L80.334100,69.657500C79.733100,72.043000,77.456600,73.741300,75.280500,73.574600L63.855700,72.703100C62.770400,72.619000,61.857300,73.298100,61.579200,74.400000C61.301100,75.502000,61.842400,76.297600,62.935900,76.374800L71.095100,76.998300C74.360600,77.247700,74.298200,80.426100,74.067600,81.335600L73.975300,81.702900C73.372900,84.091100,71.096400,85.789400,68.920300,85.622700L60.035300,84.945000C47.884700,84.017900,43.890600,83.713000,37.599600,81.547000L24.062500,76.583600L34.601300,34.722200L43.962500,31.321500C57.190300,26.527500,63.584400,16.535500,67.334300,10.459300C69.802100,6.528670,72.225200,2.785070,76.163700,4.022550C77.885300,4.528110,79.645000,6.347050,78.858100,9.467170L76.958700,16.996400C75.431100,23.055000,71.910400,28.964500,67.216300,33.658200L64.525900,36.260600C63.342900,37.292000,63.786500,39.196400,65.236800,39.307500L89.358900,41.149500Z" fill="rgb(212,154,214)" stroke="none" stroke-width="1"/><path id="ekpu3k1lkd0s7" d="M31.904400,30.025800L19.224700,80.338000L19.044300,80.324400L7.980440,79.478700C4.899390,79.244200,3.142470,76.675700,3.928000,73.554200L13.876600,34.075700C14.663500,30.958300,17.623800,28.747600,20.524400,28.968500C24.830600,29.486300,28.321400,29.564900,30.497500,29.730300C31.413300,29.799400,31.770100,29.827900,31.904400,30.025800Z" fill="rgb(212,154,214)" stroke="none" stroke-width="1"/><path id="ekpu3k1lkd0s8" d="M19.531600,28.277800L19.978700,28.383700L14.487200,51.570000L19.999000,60.756300L17.605900,71.718200L17.157100,71.620300L19.511300,60.836400L13.997100,51.646000L19.531600,28.277800Z" clip-rule="evenodd" fill="rgb(151,50,154)" fill-rule="evenodd" stroke="none" stroke-width="1"/><path id="ekpu3k1lkd0s9" d="M23.207000,50.941900L28.490300,28.889800L28.937100,28.996900L23.653800,51.049000L23.207000,50.941900Z" clip-rule="evenodd" fill="rgb(151,50,154)" fill-rule="evenodd" stroke="none" stroke-width="1"/><path id="ekpu3k1lkd0s10" d="M52.673800,37.112200L50.047500,48.312600L33.430000,57.731700L28.094000,78.999200L27.648400,78.887400L33.032300,57.429000L49.646100,48.012000L52.226500,37.007300L52.673800,37.112200Z" clip-rule="evenodd" fill="rgb(151,50,154)" fill-rule="evenodd" stroke="none" stroke-width="1"/><path id="ekpu3k1lkd0s11" d="M70.475300,10.778800L78.972200,11.870200L78.913700,12.325900L70.718400,11.273300L59.940800,29.716700L57.246400,42.215500L70.618700,43.492600L70.575000,43.950000L56.688500,42.623700L59.507100,29.548200L70.475300,10.778800Z" clip-rule="evenodd" fill="rgb(151,50,154)" fill-rule="evenodd" stroke="none" stroke-width="1"/><path id="ekpu3k1lkd0s12" d="M51.943900,53.899200L88.537200,57.581500L88.491200,58.038600L52.037000,54.370300L42.068100,59.697200L41.851600,59.292000L51.943900,53.899200Z" clip-rule="evenodd" fill="rgb(151,50,154)" fill-rule="evenodd" stroke="none" stroke-width="1"/><path id="ekpu3k1lkd0s13" d="M60.095700,66.077800L72.531200,67.152500L72.491700,67.610200L60.118700,66.540900L40.692900,70.183200L37.512400,83.056700L37.066400,82.946500L40.317800,69.786200L60.095700,66.077800Z" clip-rule="evenodd" fill="rgb(151,50,154)" fill-rule="evenodd" stroke="none" stroke-width="1"/><g id="ekpu3k1lkd0s14_to" transform="translate(71.561749,67.425751)"><path id="ekpu3k1lkd0s14" d="M72.679200,67.425800C72.679200,68.042400,72.178900,68.542200,71.561700,68.542200C70.944600,68.542200,70.444300,68.042400,70.444300,67.425800C70.444300,66.809200,70.944600,66.309300,71.561700,66.309300C72.178900,66.309300,72.679200,66.809200,72.679200,67.425800Z" transform="translate(-71.561749,-67.425751)" fill="rgb(151,50,154)" stroke="none" stroke-width="1"/></g><g id="ekpu3k1lkd0s15_to" transform="translate(52.419149,37.104151)"><path id="ekpu3k1lkd0s15" d="M53.536500,37.104200C53.536500,37.720800,53.036200,38.220600,52.419100,38.220600C51.802000,38.220600,51.301800,37.720800,51.301800,37.104200C51.301800,36.487600,51.802000,35.987700,52.419100,35.987700C53.036200,35.987700,53.536500,36.487600,53.536500,37.104200Z" transform="translate(-52.419149,-37.104151)" fill="rgb(151,50,154)" stroke="none" stroke-width="1"/></g><g id="ekpu3k1lkd0s16_to" transform="translate(17.349800,71.713650)"><path id="ekpu3k1lkd0s16" d="M18.467200,71.713700C18.467200,72.330300,17.966900,72.830100,17.349800,72.830100C16.732700,72.830100,16.232400,72.330300,16.232400,71.713700C16.232400,71.097100,16.732700,70.597200,17.349800,70.597200C17.966900,70.597200,18.467200,71.097100,18.467200,71.713700Z" transform="translate(-17.349800,-71.713650)" fill="rgb(151,50,154)" stroke="none" stroke-width="1"/></g><path id="ekpu3k1lkd0s17" d="M23.169200,52.768900C23.617400,52.768900,23.980300,52.405900,23.980300,51.958700C23.980300,51.511500,23.617400,51.148500,23.169200,51.148500C22.720900,51.148500,22.358000,51.511500,22.358000,51.958700C22.358000,52.405900,22.720900,52.768900,23.169200,52.768900ZM23.169200,53.075100C23.786300,53.075100,24.286500,52.575300,24.286500,51.958700C24.286500,51.342100,23.786300,50.842300,23.169200,50.842300C22.552000,50.842300,22.051800,51.342100,22.051800,51.958700C22.051800,52.575300,22.552000,53.075100,23.169200,53.075100Z" clip-rule="evenodd" fill="rgb(151,50,154)" fill-rule="evenodd" stroke="none" stroke-width="1"/><path id="ekpu3k1lkd0s18" d="M71.408400,44.652500C71.856600,44.652500,72.219500,44.289500,72.219500,43.842300C72.219500,43.395100,71.856600,43.032200,71.408400,43.032200C70.960200,43.032200,70.597300,43.395100,70.597300,43.842300C70.597300,44.289500,70.960200,44.652500,71.408400,44.652500ZM71.408400,44.958800C72.025500,44.958800,72.525800,44.458900,72.525800,43.842300C72.525800,43.225700,72.025500,42.725900,71.408400,42.725900C70.791300,42.725900,70.291000,43.225700,70.291000,43.842300C70.291000,44.458900,70.791300,44.958800,71.408400,44.958800Z" clip-rule="evenodd" fill="rgb(151,50,154)" fill-rule="evenodd" stroke="none" stroke-width="1"/><path id="ekpu3k1lkd0s19" d="M71.408400,44.652500C71.856600,44.652500,72.219500,44.289500,72.219500,43.842300C72.219500,43.395100,71.856600,43.032200,71.408400,43.032200C70.960200,43.032200,70.597300,43.395100,70.597300,43.842300C70.597300,44.289500,70.960200,44.652500,71.408400,44.652500ZM71.408400,44.958800C72.025500,44.958800,72.525800,44.458900,72.525800,43.842300C72.525800,43.225700,72.025500,42.725900,71.408400,42.725900C70.791300,42.725900,70.291000,43.225700,70.291000,43.842300C70.291000,44.458900,70.791300,44.958800,71.408400,44.958800Z" transform="matrix(1 0 0 1 -18.73459999500002 -6.73820000000001)" clip-rule="evenodd" fill="rgb(151,50,154)" fill-rule="evenodd" stroke="none" stroke-width="1"/><path id="ekpu3k1lkd0s20" d="M71.408400,44.652500C71.856600,44.652500,72.219500,44.289500,72.219500,43.842300C72.219500,43.395100,71.856600,43.032200,71.408400,43.032200C70.960200,43.032200,70.597300,43.395100,70.597300,43.842300C70.597300,44.289500,70.960200,44.652500,71.408400,44.652500ZM71.408400,44.958800C72.025500,44.958800,72.525800,44.458900,72.525800,43.842300C72.525800,43.225700,72.025500,42.725900,71.408400,42.725900C70.791300,42.725900,70.291000,43.225700,70.291000,43.842300C70.291000,44.458900,70.791300,44.958800,71.408400,44.958800Z" transform="matrix(1 0 0 1 1.49317000000001 23.62788800499997)" clip-rule="evenodd" fill="rgb(151,50,154)" fill-rule="evenodd" stroke="none" stroke-width="1"/><path id="ekpu3k1lkd0s21" d="M41.087100,60.885200C41.535300,60.885200,41.898200,60.522300,41.898200,60.075100C41.898200,59.627900,41.535300,59.264900,41.087100,59.264900C40.638900,59.264900,40.276000,59.627900,40.276000,60.075100C40.276000,60.522300,40.638900,60.885200,41.087100,60.885200ZM41.087100,61.191500C41.704200,61.191500,42.204500,60.691700,42.204500,60.075100C42.204500,59.458500,41.704200,58.958700,41.087100,58.958700C40.470000,58.958700,39.969700,59.458500,39.969700,60.075100C39.969700,60.691700,40.470000,61.191500,41.087100,61.191500Z" clip-rule="evenodd" fill="rgb(151,50,154)" fill-rule="evenodd" stroke="none" stroke-width="1"/><path id="ekpu3k1lkd0s22" d="M41.087100,60.885200C41.535300,60.885200,41.898200,60.522300,41.898200,60.075100C41.898200,59.627900,41.535300,59.264900,41.087100,59.264900C40.638900,59.264900,40.276000,59.627900,40.276000,60.075100C40.276000,60.522300,40.638900,60.885200,41.087100,60.885200ZM41.087100,61.191500C41.704200,61.191500,42.204500,60.691700,42.204500,60.075100C42.204500,59.458500,41.704200,58.958700,41.087100,58.958700C40.470000,58.958700,39.969700,59.458500,39.969700,60.075100C39.969700,60.691700,40.470000,61.191500,41.087100,61.191500Z" clip-rule="evenodd" fill="rgb(151,50,154)" fill-rule="evenodd" stroke="none" stroke-width="1"/></svg>