<svg id="e7nom2x6jwkc1" xmlns="http://www.w3.org/2000/svg" xmlns:xlink="http://www.w3.org/1999/xlink" viewBox="0 0 81 125" shape-rendering="geometricPrecision" text-rendering="geometricPrecision"><style><![CDATA[#e7nom2x6jwkc5_to {animation: e7nom2x6jwkc5_to__to 3400ms linear infinite normal forwards}@keyframes e7nom2x6jwkc5_to__to { 0% {transform: translate(-0.000225px,0px)} 50% {transform: translate(-0px,42.628600px)} 100% {transform: translate(-0px,42.628600px)} }#e7nom2x6jwkc6_to {animation: e7nom2x6jwkc6_to__to 3400ms linear infinite normal forwards}@keyframes e7nom2x6jwkc6_to__to { 0% {transform: translate(14.174370px,24.258700px)} 32.352941% {transform: translate(34.881570px,27.210510px)} 61.764706% {transform: translate(46.845435px,37.541850px)} 91.176471% {transform: translate(46.845435px,49.896486px)} 100% {transform: translate(46.845435px,49.896486px)} }#e7nom2x6jwkc13_to {animation: e7nom2x6jwkc13_to__to 3400ms linear infinite normal forwards}@keyframes e7nom2x6jwkc13_to__to { 0% {transform: translate(0px,0px)} 50% {transform: translate(-6.609981px,-0.528799px)} 97.058824% {transform: translate(0px,0px)} 100% {transform: translate(0px,0px)} }#e7nom2x6jwkc14_to {animation: e7nom2x6jwkc14_to__to 3400ms linear infinite normal forwards}@keyframes e7nom2x6jwkc14_to__to { 0% {transform: translate(0px,0px)} 50% {transform: translate(-6.609981px,-0.528799px)} 97.058824% {transform: translate(0px,0px)} 100% {transform: translate(0px,0px)} }#e7nom2x6jwkc15_to {animation: e7nom2x6jwkc15_to__to 3400ms linear infinite normal forwards}@keyframes e7nom2x6jwkc15_to__to { 0% {transform: translate(0px,0px)} 50% {transform: translate(-6.609981px,-0.528799px)} 97.058824% {transform: translate(0px,0px)} 100% {transform: translate(0px,0px)} }#e7nom2x6jwkc21_to {animation: e7nom2x6jwkc21_to__to 3400ms linear infinite normal forwards}@keyframes e7nom2x6jwkc21_to__to { 0% {transform: translate(0px,0px)} 14.705882% {transform: translate(0px,0px)} 50% {transform: translate(27.497522px,4.230387px)} 73.529412% {transform: translate(34.768501px,13.087762px)} 100% {transform: translate(34.768501px,13.087762px)} }#e7nom2x6jwkc23_to {animation: e7nom2x6jwkc23_to__to 3400ms linear infinite normal forwards}@keyframes e7nom2x6jwkc23_to__to { 0% {transform: translate(10.096685px,31.993400px);animation-timing-function: cubic-bezier(0.420000,0,1,1)} 38.235294% {transform: translate(10.096685px,-3.164200px);animation-timing-function: cubic-bezier(0.420000,0,1,1)} 58.823529% {transform: translate(1.409210px,-14.756040px);animation-timing-function: cubic-bezier(0.420000,0,1,1)} 79.411765% {transform: translate(1.409210px,-37.442800px)} 100% {transform: translate(1.409210px,-37.442800px)} }]]></style><path id="e7nom2x6jwkc2" d="M67.295700,15.851200L67.295700,122.430000C67.307700,122.661000,67.260700,122.892000,67.158500,123.105000C67.056200,123.318000,66.901300,123.506000,66.705800,123.656000C66.510300,123.806000,66.279300,123.913000,66.030800,123.969000C65.782300,124.025000,65.522800,124.029000,65.272400,123.980000L6.462070,114.379000C5.899640,114.269000,5.394120,113.991000,5.026300,113.591000C4.658470,113.190000,4.449580,112.690000,4.432990,112.169000L4.432990,5.588680C4.420960,5.356650,4.468140,5.125240,4.570880,4.912390C4.673620,4.699550,4.829150,4.511000,5.025400,4.361380C5.221650,4.211760,5.453350,4.105100,5.702500,4.049660C5.951660,3.994230,6.211570,3.991520,6.462070,4.041740L65.272400,13.641500C65.833400,13.753000,66.337200,14.031000,66.703800,14.431300C67.070400,14.831600,67.278700,15.331400,67.295700,15.851200Z" fill="rgb(255,43,157)" stroke="none" stroke-width="1"/><path id="e7nom2x6jwkc3" d="M63.858700,12.845200L63.858700,119.425000C63.870600,119.657000,63.823400,119.889000,63.720700,120.102000C63.617900,120.315000,63.462500,120.503000,63.266300,120.653000C63.070100,120.803000,62.838400,120.910000,62.589300,120.965000C62.340200,121.021000,62.080200,121.024000,61.829600,120.974000L3.025090,111.373000C2.463740,111.262000,1.959540,110.984000,1.592860,110.583000C1.226180,110.183000,1.018120,109.683000,1.001840,109.163000L1.001840,2.582690C0.989803,2.350670,1.036990,2.119260,1.139720,1.906410C1.242460,1.693570,1.397990,1.505020,1.594250,1.355400C1.790500,1.205780,2.022190,1.099120,2.271350,1.043680C2.520510,0.988248,2.780420,0.985538,3.030920,1.035760L61.829600,10.628500C62.393000,10.739200,62.899100,11.017800,63.266900,11.419700C63.634800,11.821500,63.843100,12.323500,63.858700,12.845200ZM60.827700,105.027000L60.827700,26.263100C60.809500,25.724500,60.592800,25.207000,60.212000,24.792800C59.831300,24.378700,59.308400,24.091800,58.726700,23.977800L6.533750,15.455600C6.274310,15.404200,6.005270,15.407400,5.747430,15.465100C5.489590,15.522800,5.249860,15.633400,5.046780,15.788400C4.843700,15.943400,4.682710,16.138500,4.576250,16.358800C4.469790,16.579100,4.420720,16.818600,4.432830,17.058800L4.432830,95.820600C4.451010,96.359200,4.667730,96.876700,5.048460,97.290900C5.429200,97.705000,5.952050,97.991900,6.533750,98.105800L58.726700,106.626000C58.985900,106.678000,59.254700,106.675000,59.512400,106.618000C59.770100,106.560000,60.009800,106.450000,60.212900,106.295000C60.416000,106.141000,60.577100,105.946000,60.683700,105.726000C60.790300,105.506000,60.839600,105.267000,60.827700,105.027000Z" transform="matrix(1 0 0 1 0.00022608000000 0.00011975000000)" fill="rgb(255,180,221)" stroke="none" stroke-width="1"/><path id="e7nom2x6jwkc4" d="M60.827800,26.263100L60.827800,105.027000C60.840000,105.267000,60.791000,105.506000,60.684500,105.726000C60.578000,105.947000,60.417000,106.142000,60.213800,106.297000C60.010700,106.452000,59.770900,106.562000,59.513100,106.619000C59.255200,106.677000,58.986200,106.680000,58.726900,106.628000L6.533880,98.107600C5.952180,97.993700,5.429320,97.706800,5.048590,97.292600C4.667850,96.878500,4.451140,96.360900,4.432950,95.822400L4.432950,17.057100C4.420840,16.816900,4.469920,16.577400,4.576370,16.357100C4.682830,16.136800,4.843830,15.941600,5.046910,15.786600C5.249990,15.631700,5.489710,15.521100,5.747550,15.463400C6.005390,15.405700,6.274440,15.402400,6.533880,15.453900L58.726900,23.976100C59.308900,24.090100,59.832000,24.377300,60.212700,24.791700C60.593500,25.206200,60.810000,25.724200,60.827800,26.263100Z" transform="matrix(1 0 0 1 0.18441176000000 0.00078704500001)" fill="rgb(255,180,221)" stroke="none" stroke-width="1"/><g id="e7nom2x6jwkc5_to" transform="translate(-0.000225,0)"><path id="e7nom2x6jwkc5" d="M10.320300,54.791100C10.320300,55.373600,9.798680,55.845800,9.155260,55.845800C8.511830,55.845800,7.990230,55.373600,7.990230,54.791100C7.990230,54.208600,8.511830,53.736400,9.155260,53.736400C9.798680,53.736400,10.320300,54.208600,10.320300,54.791100Z" transform="translate(0,0)" fill="rgb(255,43,157)" stroke="none" stroke-width="1"/></g><g id="e7nom2x6jwkc6_to" transform="translate(14.174370,24.258700)"><path id="e7nom2x6jwkc6" d="M10.320300,54.791100C10.320300,55.373600,9.798680,55.845800,9.155260,55.845800C8.511830,55.845800,7.990230,55.373600,7.990230,54.791100C7.990230,54.208600,8.511830,53.736400,9.155260,53.736400C9.798680,53.736400,10.320300,54.208600,10.320300,54.791100Z" transform="translate(0,0)" fill="rgb(255,43,157)" stroke="none" stroke-width="1"/></g><path id="e7nom2x6jwkc7" d="M2.903480,1.671550C2.741550,1.639090,2.573030,1.640870,2.412220,1.676650C2.251440,1.712420,2.106480,1.780320,1.987440,1.871070C1.868610,1.961670,1.780180,2.071390,1.723760,2.188280C1.667540,2.304750,1.643190,2.427830,1.649480,2.549070L1.650350,2.565860L1.650350,109.152000C1.663690,109.506000,1.806530,109.856000,2.071170,110.145000C2.337210,110.436000,2.711600,110.647000,3.140950,110.734000L61.934100,120.334000L61.829600,120.974000L61.956400,120.338000C62.119000,120.370000,62.288100,120.368000,62.449300,120.332000C62.610600,120.296000,62.755900,120.228000,62.875000,120.136000C62.993900,120.045000,63.082200,119.935000,63.138300,119.817000C63.194300,119.700000,63.218200,119.577000,63.211300,119.455000L63.210200,119.437000L63.210200,12.849800C63.196100,12.494900,63.052400,12.144500,62.787000,11.855500C62.519900,11.564700,62.144500,11.353200,61.714200,11.266700L2.914970,1.673860L2.903480,1.671550ZM61.714600,121.612000L2.910010,112.011000L2.899460,112.009000C2.210220,111.873000,1.579920,111.529000,1.114630,111.021000C0.648189,110.512000,0.375080,109.865000,0.353720,109.183000L0.353402,109.173000L0.353402,2.597850C0.339023,2.261300,0.409176,1.928180,0.555763,1.624490C0.704817,1.315700,0.927448,1.048320,1.201120,0.839679C1.474590,0.631191,1.793020,0.485758,2.130550,0.410661C2.463950,0.336484,2.810820,0.332034,3.146060,0.397468L61.944400,9.990150L61.954600,9.992170C62.644600,10.127700,63.275800,10.470400,63.742200,10.978300C64.209800,11.487400,64.484200,12.133900,64.506800,12.816600L64.507200,12.827400L64.507200,119.402000C64.522900,119.738000,64.454000,120.072000,64.308500,120.377000C64.160200,120.687000,63.937900,120.956000,63.664100,121.166000C63.390500,121.375000,63.071600,121.522000,62.733300,121.598000C62.399000,121.673000,62.051000,121.678000,61.714600,121.612000Z" clip-rule="evenodd" fill="rgb(255,43,157)" fill-rule="evenodd" stroke="none" stroke-width="1"/><path id="e7nom2x6jwkc8" d="M6.411820,16.067600C6.237690,16.033000,6.056650,16.035200,5.883870,16.073900C5.711120,16.112600,5.554890,16.185800,5.426140,16.284000C5.297600,16.382100,5.201210,16.501400,5.139390,16.629300C5.077770,16.756800,5.050780,16.892000,5.057510,17.025600L5.058300,17.041300L5.058300,95.812700C5.073450,96.191400,5.226910,96.564200,5.508870,96.870900C5.792440,97.179400,6.190180,97.402600,6.644710,97.493600L58.827400,106.012000L58.726500,106.630000L58.849100,106.016000C59.023200,106.051000,59.204200,106.049000,59.377000,106.010000C59.549800,105.972000,59.706100,105.899000,59.834800,105.801000C59.963300,105.702000,60.059600,105.583000,60.121300,105.455000C60.182800,105.328000,60.209600,105.193000,60.202700,105.059000L60.201800,105.043000L60.201800,26.272800C60.186700,25.894100,60.033200,25.521200,59.751200,25.214500C59.467700,24.906000,59.069900,24.682800,58.615400,24.591900L6.422250,16.069600L6.411820,16.067600ZM58.615600,107.246000L6.423000,98.725300L6.413290,98.723400C5.708230,98.585200,5.063680,98.235600,4.587680,97.717800C4.110570,97.198800,3.830800,96.540300,3.807330,95.845200L3.806980,95.834700L3.806980,17.071400C3.792650,16.730300,3.863930,16.392700,4.012730,16.084800C4.163830,15.772200,4.389430,15.501100,4.667040,15.289200C4.944460,15.077500,5.267680,14.929500,5.610610,14.852800C5.949810,14.776900,6.302840,14.771900,6.644130,14.838000L58.837100,23.360200L58.846800,23.362100C59.551900,23.500200,60.196400,23.849800,60.672400,24.367600C61.149600,24.886600,61.429300,25.545100,61.452800,26.240200L61.453100,26.250800L61.453100,105.012000C61.467900,105.353000,61.397000,105.691000,61.248400,105.999000C61.097400,106.312000,60.871700,106.583000,60.593900,106.795000C60.316200,107.007000,59.992700,107.155000,59.649500,107.232000C59.310100,107.307000,58.956900,107.312000,58.615600,107.246000Z" clip-rule="evenodd" fill="rgb(255,43,157)" fill-rule="evenodd" stroke="none" stroke-width="1"/><path id="e7nom2x6jwkc9" d="M28.206300,106.100000C26.671000,107.372000,26.731400,109.818000,28.509700,111.577000C30.288000,113.335000,32.973900,113.604000,34.509100,112.331000C36.044400,111.059000,35.984100,108.613000,34.205800,106.854000C32.427500,105.096000,29.741600,104.827000,28.206300,106.100000ZM28.007900,111.992000C26.049300,110.056000,25.855200,107.206000,27.742900,105.642000C29.630600,104.077000,32.748900,104.502000,34.707500,106.439000C36.666100,108.375000,36.860300,111.225000,34.972600,112.789000C33.084900,114.354000,29.966600,113.929000,28.007900,111.992000Z" clip-rule="evenodd" fill="rgb(255,43,157)" fill-rule="evenodd" stroke="none" stroke-width="1"/><path id="e7nom2x6jwkc10" d="M21.047400,11.665000C21.367700,11.399400,21.343800,10.903800,20.994000,10.558000C20.644200,10.212200,20.101000,10.147100,19.780700,10.412600C19.460300,10.678100,19.484200,11.173800,19.834000,11.519600C20.183800,11.865400,20.727100,11.930500,21.047400,11.665000Z" fill="rgb(255,43,157)" stroke="none" stroke-width="1"/><path id="e7nom2x6jwkc11" d="M19.869000,10.499700C19.615700,10.709700,19.614100,11.128600,19.929700,11.440600C20.245200,11.752600,20.706300,11.787900,20.959600,11.577900C21.212900,11.367900,21.214500,10.949000,20.898900,10.637000C20.583400,10.325000,20.122300,10.289700,19.869000,10.499700ZM19.739000,11.598600C19.355000,11.218900,19.305600,10.646600,19.692900,10.325500C20.080200,10.004500,20.705600,10.099300,21.089600,10.479000C21.473600,10.858700,21.523000,11.431000,21.135700,11.752000C20.748400,12.073100,20.123000,11.978300,19.739000,11.598600Z" clip-rule="evenodd" fill="rgb(255,43,157)" fill-rule="evenodd" stroke="none" stroke-width="1"/><path id="e7nom2x6jwkc12" d="M24.362900,11.668400C24.420500,11.307200,24.760100,11.061100,25.121300,11.118800L40.717100,13.607900C41.078300,13.665600,41.324400,14.005200,41.266700,14.366400C41.209100,14.727600,40.869500,14.973700,40.508300,14.916000L24.912500,12.426900C24.551300,12.369200,24.305200,12.029700,24.362900,11.668400Z" clip-rule="evenodd" fill="rgb(255,43,157)" fill-rule="evenodd" stroke="none" stroke-width="1"/><g id="e7nom2x6jwkc13_to" transform="translate(0,0)"><path id="e7nom2x6jwkc13" d="M71.277500,64.472200C76.731800,65.867500,81,70.748100,81,75.831200C81,81.268400,76.120000,84.918500,70.127000,83.952900L34.501100,78.258300C27.595600,77.154600,21.972200,71.158900,21.972200,64.890600C21.972200,60.604400,24.578200,57.181600,28.710600,55.898000C28.363800,54.747300,28.185500,53.560200,28.180200,52.367200C28.180200,45.273500,34.542800,40.519800,42.379600,41.765500C48.076100,42.676100,53.083500,46.479500,55.326200,51.454700C57.009600,50.892300,58.830400,50.756800,60.592500,51.062800C66.587600,52.020800,71.467600,57.223200,71.467600,62.658500C71.471700,63.267300,71.408000,63.875000,71.277500,64.472200ZM78.295800,75.395800C78.295800,71.310300,74.629000,67.395300,70.120700,66.675800C69.995400,66.655000,69.874300,66.643700,69.751100,66.632300L69.586100,66.617200C69.349300,66.585600,69.122600,66.508200,68.921600,66.390300C68.720500,66.272400,68.549800,66.116700,68.421000,65.933700C68.289800,65.763800,68.205200,65.568000,68.174400,65.362500C68.143500,65.157100,68.167200,64.947900,68.243500,64.752400C68.595300,63.950000,68.774600,63.094100,68.771800,62.230700C68.771800,58.145200,65.100800,54.232000,60.592500,53.510700C58.723600,53.211600,56.963300,53.489900,55.499500,54.315300C55.311100,54.413200,55.098300,54.465800,54.881200,54.468100C54.664100,54.470400,54.450000,54.422400,54.259100,54.328600C54.047600,54.234300,53.859600,54.101700,53.707000,53.938800C53.554300,53.776000,53.440200,53.586500,53.371700,53.382000C51.910000,48.792900,47.389100,45.023600,42.367100,44.220900C36.029600,43.208100,30.882300,47.060700,30.882300,52.800800C30.891500,54.092500,31.145000,55.373200,31.631900,56.587100C31.890900,57.251600,31.552600,57.895300,30.867700,58.031600C27.109000,58.788900,24.670100,61.651400,24.670100,65.320300C24.670100,70.242600,29.082300,74.943300,34.501100,75.808500L70.127000,81.505100C74.637400,82.226400,78.295800,79.485100,78.295800,75.395800Z" transform="translate(0,0)" fill="rgb(255,180,221)" stroke="none" stroke-width="1"/></g><g id="e7nom2x6jwkc14_to" transform="translate(0,0)"><path id="e7nom2x6jwkc14" d="M70.202000,64.823900C75.273700,66.119500,79.242600,70.651300,79.242600,75.371200C79.242600,80.419800,74.704800,83.809000,69.132100,82.912500L36.004700,77.624800C29.583500,76.599900,24.354500,71.032700,24.354500,65.212400C24.354500,61.232600,26.777700,58.054300,30.620400,56.862500C30.297900,55.794000,30.132000,54.691700,30.127200,53.584000C30.127200,46.997300,36.043500,42.583200,43.330800,43.739900C48.627700,44.585400,53.283900,48.117000,55.369300,52.736700C56.934700,52.214500,58.627800,52.088700,60.266300,52.372900C65.840900,53.262300,70.378700,58.093000,70.378700,63.139900C70.382500,63.705200,70.323300,64.269400,70.202000,64.823900ZM76.728100,74.966900C76.728100,71.173400,73.318400,67.538100,69.126300,66.870100C69.009800,66.850700,68.897200,66.840200,68.782600,66.829600L68.629200,66.815600C68.408900,66.786300,68.198200,66.714500,68.011300,66.605000C67.824300,66.495500,67.665600,66.350900,67.545700,66.181000C67.423800,66.023300,67.345200,65.841400,67.316500,65.650600C67.287800,65.459800,67.309800,65.265600,67.380700,65.084100C67.707800,64.339100,67.874600,63.544300,67.872000,62.742600C67.872000,58.949100,64.458400,55.315500,60.266300,54.645800C58.528500,54.368000,56.891600,54.626500,55.530500,55.392900C55.355300,55.483800,55.157400,55.532600,54.955600,55.534700C54.753700,55.536900,54.554600,55.492300,54.377100,55.405200C54.180400,55.317700,54.005600,55.194500,53.863700,55.043300C53.721700,54.892100,53.615600,54.716100,53.551900,54.526300C52.192700,50.265200,47.988900,46.765200,43.319100,46.019900C37.426000,45.079400,32.639700,48.656700,32.639700,53.986600C32.648300,55.186000,32.884100,56.375100,33.336800,57.502300C33.577600,58.119400,33.263000,58.717000,32.626100,58.843600C29.131100,59.546800,26.863200,62.204700,26.863200,65.611400C26.863200,70.181900,30.966000,74.546700,36.004700,75.350100L69.132100,80.639500C73.326200,81.309300,76.728100,78.763900,76.728100,74.966900Z" transform="translate(0,0)" fill="rgb(255,43,157)" stroke="none" stroke-width="1"/></g><g id="e7nom2x6jwkc15_to" transform="translate(0,0)"><path id="e7nom2x6jwkc15" d="M69.132200,66.880600C73.324400,67.539800,76.728200,71.175100,76.728200,74.966900C76.728200,78.758600,73.320500,81.307500,69.126400,80.639500L36.004800,75.351800C30.966100,74.548500,26.863300,70.180200,26.863300,65.613200C26.863300,62.206400,29.125400,59.550300,32.626300,58.845400C33.263100,58.718800,33.577700,58.121100,33.336900,57.504100C32.884200,56.376900,32.648400,55.187700,32.639900,53.988400C32.639900,48.656700,37.432000,45.081200,43.319200,46.021700C47.979300,46.767000,52.196700,50.266900,53.552000,54.528000C53.615700,54.717900,53.721800,54.893900,53.863800,55.045100C54.005800,55.196300,54.180500,55.319400,54.377200,55.407000C54.554700,55.494100,54.753800,55.538700,54.955700,55.536500C55.157500,55.534400,55.355400,55.485500,55.530600,55.394700C56.889800,54.628200,58.528600,54.369800,60.266400,54.647600C64.458500,55.317300,67.872100,58.950800,67.872100,62.744300C67.874700,63.546100,67.707900,64.340800,67.380800,65.085800C67.309900,65.267400,67.287900,65.461600,67.316600,65.652400C67.345300,65.843200,67.423900,66.025000,67.545900,66.182800C67.665700,66.352600,67.824400,66.497200,68.011400,66.606700C68.198300,66.716200,68.409000,66.788000,68.629300,66.817300L68.782700,66.831400C68.903100,66.842000,69.015700,66.852500,69.132200,66.880600Z" transform="translate(0,0)" fill="rgb(255,43,157)" stroke="none" stroke-width="1"/></g><path id="e7nom2x6jwkc16" d="M10.075700,15.414600L10.564500,15.414600L10.564500,39.068900L19.496300,51.813500L19.496300,85.729800L19.007500,85.729800L19.007500,51.967700L10.075700,39.223100L10.075700,15.414600Z" clip-rule="evenodd" fill="rgb(255,43,157)" fill-rule="evenodd" stroke="none" stroke-width="1"/><path id="e7nom2x6jwkc17" d="M9.399440,54.791100L9.399440,98.474400L8.910640,98.474400L8.910640,54.791100L9.399440,54.791100Z" clip-rule="evenodd" fill="rgb(255,43,157)" fill-rule="evenodd" stroke="none" stroke-width="1"/><path id="e7nom2x6jwkc18" d="M24.434300,78.983900L43.719500,81.893900L56.000700,91.322400L56.000700,105.682000L55.511900,105.682000L55.511900,91.563400L43.521900,82.358400L24.361300,79.467300L24.434300,78.983900Z" clip-rule="evenodd" fill="rgb(255,43,157)" fill-rule="evenodd" stroke="none" stroke-width="1"/><path id="e7nom2x6jwkc19" d="M15.998000,17.348300L16.486800,17.348300L16.486800,29.576200L25.762600,42.785000L25.362600,43.065900L15.998000,29.730700L15.998000,17.348300Z" clip-rule="evenodd" fill="rgb(255,43,157)" fill-rule="evenodd" stroke="none" stroke-width="1"/><path id="e7nom2x6jwkc20" d="M52.615100,32.868900L25.331100,28.664500L25.405500,28.181400L52.877400,32.414700L60.412500,41.805600L60.031200,42.111500L52.615100,32.868900Z" clip-rule="evenodd" fill="rgb(255,43,157)" fill-rule="evenodd" stroke="none" stroke-width="1"/><g id="e7nom2x6jwkc21_to" transform="translate(0,0)"><path id="e7nom2x6jwkc21" d="M26.436500,28.422900C26.436500,29.005400,25.914900,29.477700,25.271500,29.477700C24.628000,29.477700,24.106400,29.005400,24.106400,28.422900C24.106400,27.840400,24.628000,27.368200,25.271500,27.368200C25.914900,27.368200,26.436500,27.840400,26.436500,28.422900Z" transform="translate(0,0)" fill="rgb(255,43,157)" stroke="none" stroke-width="1"/></g><path id="e7nom2x6jwkc22" d="M25.271500,29.151800C25.766200,29.151800,26.110600,28.795700,26.110600,28.422900C26.110600,28.050100,25.766200,27.694100,25.271500,27.694100C24.776800,27.694100,24.432300,28.050100,24.432300,28.422900C24.432300,28.795700,24.776800,29.151800,25.271500,29.151800ZM25.271500,29.477700C25.914900,29.477700,26.436500,29.005400,26.436500,28.422900C26.436500,27.840400,25.914900,27.368200,25.271500,27.368200C24.628000,27.368200,24.106400,27.840400,24.106400,28.422900C24.106400,29.005400,24.628000,29.477700,25.271500,29.477700Z" clip-rule="evenodd" fill="rgb(255,43,157)" fill-rule="evenodd" stroke="none" stroke-width="1"/><g id="e7nom2x6jwkc23_to" transform="translate(10.096685,31.993400)"><path id="e7nom2x6jwkc23" d="M10.320300,54.791100C10.320300,55.373600,9.798680,55.845800,9.155260,55.845800C8.511830,55.845800,7.990230,55.373600,7.990230,54.791100C7.990230,54.208600,8.511830,53.736400,9.155260,53.736400C9.798680,53.736400,10.320300,54.208600,10.320300,54.791100Z" transform="translate(0,0)" fill="rgb(255,43,157)" stroke="none" stroke-width="1"/></g><path id="e7nom2x6jwkc24" d="M9.155260,55.519900C9.649960,55.519900,9.994410,55.163900,9.994410,54.791100C9.994410,54.418300,9.649960,54.062200,9.155260,54.062200C8.660550,54.062200,8.316100,54.418300,8.316100,54.791100C8.316100,55.163900,8.660550,55.519900,9.155260,55.519900ZM9.155260,55.845800C9.798680,55.845800,10.320300,55.373600,10.320300,54.791100C10.320300,54.208600,9.798680,53.736400,9.155260,53.736400C8.511830,53.736400,7.990230,54.208600,7.990230,54.791100C7.990230,55.373600,8.511830,55.845800,9.155260,55.845800Z" clip-rule="evenodd" fill="rgb(255,43,157)" fill-rule="evenodd" stroke="none" stroke-width="1"/><path id="e7nom2x6jwkc25" d="M26.242200,44.445300C26.736900,44.445300,27.081300,44.089300,27.081300,43.716500C27.081300,43.343700,26.736900,42.987600,26.242200,42.987600C25.747500,42.987600,25.403000,43.343700,25.403000,43.716500C25.403000,44.089300,25.747500,44.445300,26.242200,44.445300ZM26.242200,44.771200C26.885600,44.771200,27.407200,44.299000,27.407200,43.716500C27.407200,43.134000,26.885600,42.661700,26.242200,42.661700C25.598700,42.661700,25.077100,43.134000,25.077100,43.716500C25.077100,44.299000,25.598700,44.771200,26.242200,44.771200Z" clip-rule="evenodd" fill="rgb(255,43,157)" fill-rule="evenodd" stroke="none" stroke-width="1"/><path id="e7nom2x6jwkc26" d="M19.251900,87.513400C19.746600,87.513400,20.091100,87.157300,20.091100,86.784500C20.091100,86.411700,19.746600,86.055600,19.251900,86.055600C18.757200,86.055600,18.412800,86.411700,18.412800,86.784500C18.412800,87.157300,18.757200,87.513400,19.251900,87.513400ZM19.251900,87.839200C19.895400,87.839200,20.417000,87.367000,20.417000,86.784500C20.417000,86.202000,19.895400,85.729800,19.251900,85.729800C18.608500,85.729800,18.086900,86.202000,18.086900,86.784500C18.086900,87.367000,18.608500,87.839200,19.251900,87.839200Z" clip-rule="evenodd" fill="rgb(255,43,157)" fill-rule="evenodd" stroke="none" stroke-width="1"/><path id="e7nom2x6jwkc27" d="M23.329600,79.778700C23.824300,79.778700,24.168700,79.422600,24.168700,79.049800C24.168700,78.677000,23.824300,78.321000,23.329600,78.321000C22.834900,78.321000,22.490400,78.677000,22.490400,79.049800C22.490400,79.422600,22.834900,79.778700,23.329600,79.778700ZM23.329600,80.104500C23.973000,80.104500,24.494600,79.632300,24.494600,79.049800C24.494600,78.467300,23.973000,77.995100,23.329600,77.995100C22.686100,77.995100,22.164600,78.467300,22.164600,79.049800C22.164600,79.632300,22.686100,80.104500,23.329600,80.104500Z" clip-rule="evenodd" fill="rgb(255,43,157)" fill-rule="evenodd" stroke="none" stroke-width="1"/></svg>