<svg width="81" height="125" viewBox="0 0 81 125" fill="none" xmlns="http://www.w3.org/2000/svg">
<path d="M67.2957 15.8512V122.43C67.3077 122.661 67.2607 122.892 67.1585 123.105C67.0562 123.318 66.9013 123.506 66.7058 123.656C66.5103 123.806 66.2793 123.913 66.0308 123.969C65.7823 124.025 65.5228 124.029 65.2724 123.98L6.46207 114.379C5.89964 114.269 5.39412 113.991 5.0263 113.591C4.65847 113.19 4.44958 112.69 4.43299 112.169V5.58868C4.42096 5.35665 4.46814 5.12524 4.57088 4.91239C4.67362 4.69955 4.82915 4.511 5.0254 4.36138C5.22165 4.21176 5.45335 4.1051 5.7025 4.04966C5.95166 3.99423 6.21157 3.99152 6.46207 4.04174L65.2724 13.6415C65.8334 13.753 66.3372 14.031 66.7038 14.4313C67.0704 14.8316 67.2787 15.3314 67.2957 15.8512Z" fill="#FF2B9D"/>
<path d="M63.8587 12.8452V119.425C63.8706 119.657 63.8234 119.889 63.7207 120.102C63.6179 120.315 63.4625 120.503 63.2663 120.653C63.0701 120.803 62.8384 120.91 62.5893 120.965C62.3402 121.021 62.0802 121.024 61.8296 120.974L3.02509 111.373C2.46374 111.262 1.95954 110.984 1.59286 110.583C1.22618 110.183 1.01812 109.683 1.00184 109.163V2.58269C0.989803 2.35067 1.03699 2.11926 1.13972 1.90641C1.24246 1.69357 1.39799 1.50502 1.59425 1.3554C1.7905 1.20578 2.02219 1.09912 2.27135 1.04368C2.52051 0.988248 2.78042 0.985538 3.03092 1.03576L61.8296 10.6285C62.393 10.7392 62.8991 11.0178 63.2669 11.4197C63.6348 11.8215 63.8431 12.3235 63.8587 12.8452ZM60.8277 105.027V26.2631C60.8095 25.7245 60.5928 25.207 60.212 24.7928C59.8313 24.3787 59.3084 24.0918 58.7267 23.9778L6.53375 15.4556C6.27431 15.4042 6.00527 15.4074 5.74743 15.4651C5.48959 15.5228 5.24986 15.6334 5.04678 15.7884C4.8437 15.9434 4.68271 16.1385 4.57625 16.3588C4.46979 16.5791 4.42072 16.8186 4.43283 17.0588V95.8206C4.45101 96.3592 4.66773 96.8767 5.04846 97.2909C5.4292 97.705 5.95205 97.9919 6.53375 98.1058L58.7267 106.626C58.9859 106.678 59.2547 106.675 59.5124 106.618C59.7701 106.56 60.0098 106.45 60.2129 106.295C60.416 106.141 60.5771 105.946 60.6837 105.726C60.7903 105.506 60.8396 105.267 60.8277 105.027Z" fill="#FFB4DD"/>
<path d="M60.8278 26.2631V105.027C60.84 105.267 60.791 105.506 60.6845 105.726C60.578 105.947 60.417 106.142 60.2138 106.297C60.0107 106.452 59.7709 106.562 59.5131 106.619C59.2552 106.677 58.9862 106.68 58.7269 106.628L6.53388 98.1076C5.95218 97.9937 5.42932 97.7068 5.04859 97.2926C4.66785 96.8785 4.45114 96.3609 4.43295 95.8224V17.0571C4.42084 16.8169 4.46992 16.5774 4.57637 16.3571C4.68283 16.1368 4.84383 15.9416 5.04691 15.7866C5.24999 15.6317 5.48971 15.5211 5.74755 15.4634C6.00539 15.4057 6.27444 15.4024 6.53388 15.4539L58.7269 23.9761C59.3089 24.0901 59.832 24.3773 60.2127 24.7917C60.5935 25.2062 60.81 25.7242 60.8278 26.2631Z" fill="#FFB4DD"/>
<path fill-rule="evenodd" clip-rule="evenodd" d="M2.90348 1.67155C2.74155 1.63909 2.57303 1.64087 2.41222 1.67665C2.25144 1.71242 2.10648 1.78032 1.98744 1.87107C1.86861 1.96167 1.78018 2.07139 1.72376 2.18828C1.66754 2.30475 1.64319 2.42783 1.64948 2.54907L1.65035 2.56586V109.152C1.66369 109.506 1.80653 109.856 2.07117 110.145C2.33721 110.436 2.7116 110.647 3.14095 110.734L61.9341 120.334L61.8296 120.974L61.9564 120.338C62.119 120.37 62.2881 120.368 62.4493 120.332C62.6106 120.296 62.7559 120.228 62.875 120.136C62.9939 120.045 63.0822 119.935 63.1383 119.817C63.1943 119.7 63.2182 119.577 63.2113 119.455L63.2102 119.437V12.8498C63.1961 12.4949 63.0524 12.1445 62.787 11.8555C62.5199 11.5647 62.1445 11.3532 61.7142 11.2667L2.91497 1.67386L2.90348 1.67155ZM61.7146 121.612L2.91001 112.011L2.89946 112.009C2.21022 111.873 1.57992 111.529 1.11463 111.021C0.648189 110.512 0.37508 109.865 0.35372 109.183L0.353402 109.173V2.59785C0.339023 2.2613 0.409176 1.92818 0.555763 1.62449C0.704817 1.3157 0.927448 1.04832 1.20112 0.839679C1.47459 0.631191 1.79302 0.485758 2.13055 0.410661C2.46395 0.336484 2.81082 0.332034 3.14606 0.397468L61.9444 9.99015L61.9546 9.99217C62.6446 10.1277 63.2758 10.4704 63.7422 10.9783C64.2098 11.4874 64.4842 12.1339 64.5068 12.8166L64.5072 12.8274V119.402C64.5229 119.738 64.454 120.072 64.3085 120.377C64.1602 120.687 63.9379 120.956 63.6641 121.166C63.3905 121.375 63.0716 121.522 62.7333 121.598C62.399 121.673 62.051 121.678 61.7146 121.612Z" fill="#FF2B9D"/>
<path fill-rule="evenodd" clip-rule="evenodd" d="M6.41182 16.0676C6.23769 16.033 6.05665 16.0352 5.88387 16.0739C5.71112 16.1126 5.55489 16.1858 5.42614 16.284C5.2976 16.3821 5.20121 16.5014 5.13939 16.6293C5.07777 16.7568 5.05078 16.892 5.05751 17.0256L5.0583 17.0413V95.8127C5.07345 96.1914 5.22691 96.5642 5.50887 96.8709C5.79244 97.1794 6.19018 97.4026 6.64471 97.4936L58.8274 106.012L58.7265 106.63L58.8491 106.016C59.0232 106.051 59.2042 106.049 59.377 106.01C59.5498 105.972 59.7061 105.899 59.8348 105.801C59.9633 105.702 60.0596 105.583 60.1213 105.455C60.1828 105.328 60.2096 105.193 60.2027 105.059L60.2018 105.043V26.2728C60.1867 25.8941 60.0332 25.5212 59.7512 25.2145C59.4677 24.906 59.0699 24.6828 58.6154 24.5919L6.42225 16.0696L6.41182 16.0676ZM58.6156 107.246L6.423 98.7253L6.41329 98.7234C5.70823 98.5852 5.06368 98.2356 4.58768 97.7178C4.11057 97.1988 3.8308 96.5403 3.80733 95.8452L3.80698 95.8347V17.0714C3.79265 16.7303 3.86393 16.3927 4.01273 16.0848C4.16383 15.7722 4.38943 15.5011 4.66704 15.2892C4.94446 15.0775 5.26768 14.9295 5.61061 14.8528C5.94981 14.7769 6.30284 14.7719 6.64413 14.838L58.8371 23.3602L58.8468 23.3621C59.5519 23.5002 60.1964 23.8498 60.6724 24.3676C61.1496 24.8866 61.4293 25.5451 61.4528 26.2402L61.4531 26.2508V105.012C61.4679 105.353 61.397 105.691 61.2484 105.999C61.0974 106.312 60.8717 106.583 60.5939 106.795C60.3162 107.007 59.9927 107.155 59.6495 107.232C59.3101 107.307 58.9569 107.312 58.6156 107.246Z" fill="#FF2B9D"/>
<path fill-rule="evenodd" clip-rule="evenodd" d="M28.2063 106.1C26.671 107.372 26.7314 109.818 28.5097 111.577C30.288 113.335 32.9739 113.604 34.5091 112.331C36.0444 111.059 35.9841 108.613 34.2058 106.854C32.4275 105.096 29.7416 104.827 28.2063 106.1ZM28.0079 111.992C26.0493 110.056 25.8552 107.206 27.7429 105.642C29.6306 104.077 32.7489 104.502 34.7075 106.439C36.6661 108.375 36.8603 111.225 34.9726 112.789C33.0849 114.354 29.9666 113.929 28.0079 111.992Z" fill="#FF2B9D"/>
<path d="M21.0474 11.665C21.3677 11.3994 21.3438 10.9038 20.994 10.558C20.6442 10.2122 20.101 10.1471 19.7807 10.4126C19.4603 10.6781 19.4842 11.1738 19.834 11.5196C20.1838 11.8654 20.7271 11.9305 21.0474 11.665Z" fill="#FF2B9D"/>
<path fill-rule="evenodd" clip-rule="evenodd" d="M19.869 10.4997C19.6157 10.7097 19.6141 11.1286 19.9297 11.4406C20.2452 11.7526 20.7063 11.7879 20.9596 11.5779C21.2129 11.3679 21.2145 10.949 20.8989 10.637C20.5834 10.325 20.1223 10.2897 19.869 10.4997ZM19.739 11.5986C19.355 11.2189 19.3056 10.6466 19.6929 10.3255C20.0802 10.0045 20.7056 10.0993 21.0896 10.479C21.4736 10.8587 21.523 11.431 21.1357 11.752C20.7484 12.0731 20.123 11.9783 19.739 11.5986Z" fill="#FF2B9D"/>
<path fill-rule="evenodd" clip-rule="evenodd" d="M24.3629 11.6684C24.4205 11.3072 24.7601 11.0611 25.1213 11.1188L40.7171 13.6079C41.0783 13.6656 41.3244 14.0052 41.2667 14.3664C41.2091 14.7276 40.8695 14.9737 40.5083 14.916L24.9125 12.4269C24.5513 12.3692 24.3052 12.0297 24.3629 11.6684Z" fill="#FF2B9D"/>
<path d="M71.2775 64.4722C76.7318 65.8675 81 70.7481 81 75.8312C81 81.2684 76.12 84.9185 70.127 83.9529L34.5011 78.2583C27.5956 77.1546 21.9722 71.1589 21.9722 64.8906C21.9722 60.6044 24.5782 57.1816 28.7106 55.898C28.3638 54.7473 28.1855 53.5602 28.1802 52.3672C28.1802 45.2735 34.5428 40.5198 42.3796 41.7655C48.0761 42.6761 53.0835 46.4795 55.3262 51.4547C57.0096 50.8923 58.8304 50.7568 60.5925 51.0628C66.5876 52.0208 71.4676 57.2232 71.4676 62.6585C71.4717 63.2673 71.408 63.875 71.2775 64.4722ZM78.2958 75.3958C78.2958 71.3103 74.629 67.3953 70.1207 66.6758C69.9954 66.655 69.8743 66.6437 69.7511 66.6323L69.5861 66.6172C69.3493 66.5856 69.1226 66.5082 68.9216 66.3903C68.7205 66.2724 68.5498 66.1167 68.421 65.9337C68.2898 65.7638 68.2052 65.568 68.1744 65.3625C68.1435 65.1571 68.1672 64.9479 68.2435 64.7524C68.5953 63.95 68.7746 63.0941 68.7718 62.2307C68.7718 58.1452 65.1008 54.232 60.5925 53.5107C58.7236 53.2116 56.9633 53.4899 55.4995 54.3153C55.3111 54.4132 55.0983 54.4658 54.8812 54.4681C54.6641 54.4704 54.45 54.4224 54.2591 54.3286C54.0476 54.2343 53.8596 54.1017 53.707 53.9388C53.5543 53.776 53.4402 53.5865 53.3717 53.382C51.91 48.7929 47.3891 45.0236 42.3671 44.2209C36.0296 43.2081 30.8823 47.0607 30.8823 52.8008C30.8915 54.0925 31.145 55.3732 31.6319 56.5871C31.8909 57.2516 31.5526 57.8953 30.8677 58.0316C27.109 58.7889 24.6701 61.6514 24.6701 65.3203C24.6701 70.2426 29.0823 74.9433 34.5011 75.8085L70.127 81.5051C74.6374 82.2264 78.2958 79.4851 78.2958 75.3958Z" fill="#FFB4DD"/>
<path d="M70.202 64.8239C75.2737 66.1195 79.2426 70.6513 79.2426 75.3712C79.2426 80.4198 74.7048 83.809 69.1321 82.9125L36.0047 77.6248C29.5835 76.5999 24.3545 71.0327 24.3545 65.2124C24.3545 61.2326 26.7777 58.0543 30.6204 56.8625C30.2979 55.794 30.132 54.6917 30.1272 53.584C30.1272 46.9973 36.0435 42.5832 43.3308 43.7399C48.6277 44.5854 53.2839 48.117 55.3693 52.7367C56.9347 52.2145 58.6278 52.0887 60.2663 52.3729C65.8409 53.2623 70.3787 58.093 70.3787 63.1399C70.3825 63.7052 70.3233 64.2694 70.202 64.8239ZM76.7281 74.9669C76.7281 71.1734 73.3184 67.5381 69.1263 66.8701C69.0098 66.8507 68.8972 66.8402 68.7826 66.8296L68.6292 66.8156C68.4089 66.7863 68.1982 66.7145 68.0113 66.605C67.8243 66.4955 67.6656 66.3509 67.5457 66.181C67.4238 66.0233 67.3452 65.8414 67.3165 65.6506C67.2878 65.4598 67.3098 65.2656 67.3807 65.0841C67.7078 64.3391 67.8746 63.5443 67.872 62.7426C67.872 58.9491 64.4584 55.3155 60.2663 54.6458C58.5285 54.368 56.8916 54.6265 55.5305 55.3929C55.3553 55.4838 55.1574 55.5326 54.9556 55.5347C54.7537 55.5369 54.5546 55.4923 54.3771 55.4052C54.1804 55.3177 54.0056 55.1945 53.8637 55.0433C53.7217 54.8921 53.6156 54.7161 53.5519 54.5263C52.1927 50.2652 47.9889 46.7652 43.3191 46.0199C37.426 45.0794 32.6397 48.6567 32.6397 53.9866C32.6483 55.186 32.8841 56.3751 33.3368 57.5023C33.5776 58.1194 33.263 58.717 32.6261 58.8436C29.1311 59.5468 26.8632 62.2047 26.8632 65.6114C26.8632 70.1819 30.966 74.5467 36.0047 75.3501L69.1321 80.6395C73.3262 81.3093 76.7281 78.7639 76.7281 74.9669Z" fill="#FF2B9D"/>
<path d="M69.1322 66.8806C73.3244 67.5398 76.7282 71.1751 76.7282 74.9669C76.7282 78.7586 73.3205 81.3075 69.1264 80.6395L36.0048 75.3518C30.9661 74.5485 26.8633 70.1802 26.8633 65.6132C26.8633 62.2064 29.1254 59.5503 32.6263 58.8454C33.2631 58.7188 33.5777 58.1211 33.3369 57.5041C32.8842 56.3769 32.6484 55.1877 32.6399 53.9884C32.6399 48.6567 37.432 45.0812 43.3192 46.0217C47.9793 46.767 52.1967 50.2669 53.552 54.528C53.6157 54.7179 53.7218 54.8939 53.8638 55.0451C54.0058 55.1963 54.1805 55.3194 54.3772 55.407C54.5547 55.4941 54.7538 55.5387 54.9557 55.5365C55.1575 55.5344 55.3554 55.4855 55.5306 55.3947C56.8898 54.6282 58.5286 54.3698 60.2664 54.6476C64.4585 55.3173 67.8721 58.9508 67.8721 62.7443C67.8747 63.5461 67.7079 64.3408 67.3808 65.0858C67.3099 65.2674 67.2879 65.4616 67.3166 65.6524C67.3453 65.8432 67.4239 66.025 67.5459 66.1828C67.6657 66.3526 67.8244 66.4972 68.0114 66.6067C68.1983 66.7162 68.409 66.788 68.6293 66.8173L68.7827 66.8314C68.9031 66.842 69.0157 66.8525 69.1322 66.8806Z" fill="#FF2B9D"/>
<path fill-rule="evenodd" clip-rule="evenodd" d="M10.0757 15.4146H10.5645V39.0689L19.4963 51.8135V85.7298H19.0075V51.9677L10.0757 39.2231V15.4146Z" fill="#FF2B9D"/>
<path fill-rule="evenodd" clip-rule="evenodd" d="M9.39944 54.7911V98.4744H8.91064V54.7911H9.39944Z" fill="#FF2B9D"/>
<path fill-rule="evenodd" clip-rule="evenodd" d="M24.4343 78.9839L43.7195 81.8939L56.0007 91.3224V105.682H55.5119V91.5634L43.5219 82.3584L24.3613 79.4673L24.4343 78.9839Z" fill="#FF2B9D"/>
<path fill-rule="evenodd" clip-rule="evenodd" d="M15.998 17.3483H16.4868V29.5762L25.7626 42.785L25.3626 43.0659L15.998 29.7307V17.3483Z" fill="#FF2B9D"/>
<path fill-rule="evenodd" clip-rule="evenodd" d="M52.6151 32.8689L25.3311 28.6645L25.4055 28.1814L52.8774 32.4147L60.4125 41.8056L60.0312 42.1115L52.6151 32.8689Z" fill="#FF2B9D"/>
<path d="M26.4365 28.4229C26.4365 29.0054 25.9149 29.4777 25.2715 29.4777C24.628 29.4777 24.1064 29.0054 24.1064 28.4229C24.1064 27.8404 24.628 27.3682 25.2715 27.3682C25.9149 27.3682 26.4365 27.8404 26.4365 28.4229Z" fill="#FF2B9D"/>
<path fill-rule="evenodd" clip-rule="evenodd" d="M25.2715 29.1518C25.7662 29.1518 26.1106 28.7957 26.1106 28.4229C26.1106 28.0501 25.7662 27.6941 25.2715 27.6941C24.7768 27.6941 24.4323 28.0501 24.4323 28.4229C24.4323 28.7957 24.7768 29.1518 25.2715 29.1518ZM25.2715 29.4777C25.9149 29.4777 26.4365 29.0054 26.4365 28.4229C26.4365 27.8404 25.9149 27.3682 25.2715 27.3682C24.628 27.3682 24.1064 27.8404 24.1064 28.4229C24.1064 29.0054 24.628 29.4777 25.2715 29.4777Z" fill="#FF2B9D"/>
<path d="M10.3203 54.7911C10.3203 55.3736 9.79868 55.8458 9.15526 55.8458C8.51183 55.8458 7.99023 55.3736 7.99023 54.7911C7.99023 54.2086 8.51183 53.7364 9.15526 53.7364C9.79868 53.7364 10.3203 54.2086 10.3203 54.7911Z" fill="#FF2B9D"/>
<path fill-rule="evenodd" clip-rule="evenodd" d="M9.15526 55.5199C9.64996 55.5199 9.99441 55.1639 9.99441 54.7911C9.99441 54.4183 9.64996 54.0622 9.15526 54.0622C8.66055 54.0622 8.3161 54.4183 8.3161 54.7911C8.3161 55.1639 8.66055 55.5199 9.15526 55.5199ZM9.15526 55.8458C9.79868 55.8458 10.3203 55.3736 10.3203 54.7911C10.3203 54.2086 9.79868 53.7364 9.15526 53.7364C8.51183 53.7364 7.99023 54.2086 7.99023 54.7911C7.99023 55.3736 8.51183 55.8458 9.15526 55.8458Z" fill="#FF2B9D"/>
<path fill-rule="evenodd" clip-rule="evenodd" d="M26.2422 44.4453C26.7369 44.4453 27.0813 44.0893 27.0813 43.7165C27.0813 43.3437 26.7369 42.9876 26.2422 42.9876C25.7475 42.9876 25.403 43.3437 25.403 43.7165C25.403 44.0893 25.7475 44.4453 26.2422 44.4453ZM26.2422 44.7712C26.8856 44.7712 27.4072 44.299 27.4072 43.7165C27.4072 43.134 26.8856 42.6617 26.2422 42.6617C25.5987 42.6617 25.0771 43.134 25.0771 43.7165C25.0771 44.299 25.5987 44.7712 26.2422 44.7712Z" fill="#FF2B9D"/>
<path fill-rule="evenodd" clip-rule="evenodd" d="M19.2519 87.5134C19.7466 87.5134 20.0911 87.1573 20.0911 86.7845C20.0911 86.4117 19.7466 86.0556 19.2519 86.0556C18.7572 86.0556 18.4128 86.4117 18.4128 86.7845C18.4128 87.1573 18.7572 87.5134 19.2519 87.5134ZM19.2519 87.8392C19.8954 87.8392 20.417 87.367 20.417 86.7845C20.417 86.202 19.8954 85.7298 19.2519 85.7298C18.6085 85.7298 18.0869 86.202 18.0869 86.7845C18.0869 87.367 18.6085 87.8392 19.2519 87.8392Z" fill="#FF2B9D"/>
<path fill-rule="evenodd" clip-rule="evenodd" d="M23.3296 79.7787C23.8243 79.7787 24.1687 79.4226 24.1687 79.0498C24.1687 78.677 23.8243 78.321 23.3296 78.321C22.8349 78.321 22.4904 78.677 22.4904 79.0498C22.4904 79.4226 22.8349 79.7787 23.3296 79.7787ZM23.3296 80.1045C23.973 80.1045 24.4946 79.6323 24.4946 79.0498C24.4946 78.4673 23.973 77.9951 23.3296 77.9951C22.6861 77.9951 22.1646 78.4673 22.1646 79.0498C22.1646 79.6323 22.6861 80.1045 23.3296 80.1045Z" fill="#FF2B9D"/>
</svg>
