<svg width="100" height="97" viewBox="0 0 100 97" fill="none" xmlns="http://www.w3.org/2000/svg">
<path d="M17.7443 77.0274C11.6387 69.436 9.60194 59.4726 11.8485 48.9146C16.5467 26.8526 38.9239 8.83054 61.7273 8.83054C84.5306 8.83054 99.2335 26.8607 94.5354 48.9226C89.8372 70.9846 67.468 89.0083 44.6567 89.0083C38.5979 89.0083 33.0541 87.703 28.0944 85.331C28.073 85.3312 28.0519 85.3258 28.0332 85.3154C28.0145 85.3049 27.9989 85.2897 27.9879 85.2714C27.9777 85.2527 27.9625 85.2372 27.944 85.2267C27.9254 85.2161 27.9043 85.211 27.883 85.2118C26.8888 84.8556 25.5993 85.331 24.8972 86.3978C21.6193 90.075 13.6126 91.9733 9.6665 92.0925C15.7349 87.5806 17.4909 82.1275 18.0202 79.6363C18.1816 79.3994 18.2397 79.1625 18.3156 78.8064C18.4431 78.2134 18.3559 77.5011 17.8314 77.1466L17.7443 77.0274Z" fill="#F7AA1B"/>
<path d="M13.6253 79.6363C7.19534 71.3343 5.00362 60.4201 7.45196 48.9146C12.6779 24.3614 37.4712 4.43942 62.6599 4.43942C87.9648 4.43942 104.251 24.4855 99.0235 49.0403C93.796 73.5951 69.0043 93.5155 43.814 93.5155C37.7552 93.5155 32.0677 92.3295 26.9645 90.0751C21.9903 94.4646 13.4574 96.5997 8.46713 96.5997C7.87926 96.6203 7.29083 96.5803 6.71116 96.4805C4.17244 96.1243 3.49943 94.8207 3.46392 93.8716C3.43648 92.3295 4.45165 90.905 6.5304 89.4821C11.9306 85.9241 13.2718 81.2977 13.6253 79.6363ZM11.8499 48.9146C9.60334 59.4726 11.6401 69.436 17.7457 77.0274L17.8393 77.1467C18.3573 77.5012 18.4445 78.2134 18.3234 78.8064C18.2476 79.1625 18.1976 79.3994 18.0281 79.6363C17.4987 82.1276 15.7428 87.5838 9.67435 92.0926C13.6204 91.9733 21.6272 90.0751 24.9051 86.3978C25.6071 85.3311 26.8967 84.8557 27.8909 85.2118C27.9122 85.211 27.9333 85.2162 27.9518 85.2267C27.9704 85.2372 27.9856 85.2527 27.9958 85.2714C28.0068 85.2898 28.0224 85.305 28.0411 85.3154C28.0598 85.3259 28.0809 85.3313 28.1023 85.3311C33.0619 87.7031 38.6058 89.0083 44.6645 89.0083C67.4759 89.0083 89.8548 70.9781 94.5433 48.9146C99.2317 26.851 84.5384 8.83054 61.7271 8.83054C38.9157 8.83054 16.5465 26.8527 11.8483 48.9146H11.8499Z" fill="#F7AA1B"/>
<path d="M59.1965 0C84.5014 0 100.788 20.0461 95.5601 44.5992C90.3326 69.1524 65.5409 89.0744 40.3506 89.0744C34.2919 89.0744 28.6044 87.8884 23.5011 85.6356C18.5269 90.0235 9.99404 92.1586 5.00375 92.1586C4.41595 92.179 3.8276 92.1395 3.24778 92.041C0.709059 91.6849 0.0360481 90.3796 0.000541471 89.4305C-0.0268955 87.8884 0.988271 86.4655 3.06702 85.0426C8.45919 81.483 9.80037 76.8566 10.1538 75.1968C3.72389 66.8932 1.53217 55.9807 3.98212 44.4752C9.21612 19.9268 34.011 0 59.1965 0ZM91.0702 44.4752C95.7683 22.4116 81.0734 4.38145 58.2621 4.38145C35.4507 4.38145 13.0815 22.4181 8.38333 44.4816C6.13673 55.038 8.17352 65.0014 14.279 72.5928L14.3727 72.712C14.8907 73.0682 14.9779 73.7804 14.8568 74.3734C14.781 74.7279 14.7309 74.9664 14.5615 75.2033C14.0321 77.6946 12.2761 83.1508 6.20774 87.658C10.1538 87.5387 18.1606 85.6421 21.4385 81.9648C22.1405 80.8964 23.4301 80.4227 24.4243 80.7788C24.4457 80.7786 24.4668 80.784 24.4855 80.7944C24.5042 80.8049 24.5198 80.8201 24.5308 80.8384C24.5415 80.8566 24.5568 80.8716 24.5753 80.8818C24.5937 80.892 24.6146 80.897 24.6357 80.8964C29.5889 83.2684 35.1327 84.5673 41.1914 84.5673C64.0028 84.5673 86.3736 66.5435 91.0702 44.4816V44.4752Z" fill="#EFD244"/>
<path d="M58.2619 4.38791C81.0733 4.38791 95.7682 22.4181 91.07 44.4816C86.3719 66.5452 64.0027 84.5673 41.1913 84.5673C35.1326 84.5673 29.5887 83.262 24.6291 80.89C24.608 80.8906 24.5872 80.8855 24.5687 80.8753C24.5503 80.8651 24.5349 80.8502 24.5242 80.832C24.5132 80.8136 24.4976 80.7985 24.4789 80.788C24.4602 80.7776 24.4391 80.7722 24.4177 80.7724C23.4235 80.4163 22.134 80.89 21.4319 81.9584C18.154 85.6356 10.1472 87.5323 6.20117 87.6515C12.2696 83.1396 14.0255 77.6881 14.5549 75.1969C14.7244 74.96 14.7744 74.7215 14.8503 74.367C14.9778 73.774 14.8906 73.0617 14.3661 72.7056L14.2725 72.5864C8.16695 64.995 6.13016 55.0316 8.37676 44.4752C13.0814 22.4181 35.4522 4.38791 58.2619 4.38791Z" fill="#EFD244"/>
<path d="M75.2795 24.1213C70.938 21.6301 65.8541 21.5124 60.3861 23.7652C58.5446 24.5951 56.0285 26.3757 54.1805 27.7937C52.6844 25.8955 50.6105 24.4726 49.4549 23.7652C45.9898 21.6301 41.6693 21.274 37.4214 22.8161C31.2384 25.0721 25.7316 30.2898 23.6884 35.983C21.8388 41.3216 22.4263 47.4885 25.3298 52.8271C28.5576 58.8764 37.9023 65.7556 37.8765 65.8796C38.2864 66.1347 38.7798 66.2197 39.2516 66.1165C39.7928 66.0152 40.2783 65.7201 40.617 65.2866C41.4127 64.3375 41.424 63.1515 40.6041 62.5585C40.7219 62.5585 31.9195 55.9162 29.016 50.5776C26.5305 46.0656 26.0722 40.9703 27.4828 36.5808C28.9853 32.3106 33.1703 28.2772 38.0637 26.4982C41.1415 25.4314 44.3 25.6683 46.8226 27.2104C49.0401 28.5157 50.7993 30.2947 51.5659 31.7224C51.8209 32.1978 52.2115 32.5523 52.8135 32.5523C53.421 32.5435 54.0087 32.3351 54.4855 31.9593C55.6621 30.8925 59.2386 28.0451 61.1979 27.2152C65.4974 25.4427 69.2676 25.5539 72.6714 27.4521C74.2514 28.4013 75.6539 30.1803 76.4125 32.1978C77.4018 34.8066 76.4125 38.3647 75.6394 40.8559C72.4115 50.4648 62.0372 56.7509 52.8829 62.3265L51.9258 62.9195L50.2716 63.9862C49.3214 64.6533 48.321 65.2459 47.2793 65.7588L46.7548 65.9973C46.4684 66.1285 46.1954 66.2871 45.9398 66.471C45.8219 66.471 45.5153 66.2341 44.9972 65.878H44.76C44.3502 65.6228 43.8566 65.5378 43.3849 65.6411C42.8605 65.7837 42.3872 66.0714 42.0195 66.471C41.6806 66.9448 41.4611 67.4202 41.4788 67.8939C41.4891 68.1206 41.5458 68.3429 41.6454 68.5469C41.7451 68.7509 41.8856 68.9323 42.0582 69.0799L42.2713 69.1992C43.0008 69.6745 43.9191 70.3852 45.107 70.3852C46.1754 70.3852 47.3971 69.6745 48.1847 69.3184L48.5931 69.0799C49.7874 68.4869 51.0333 67.657 51.992 67.064C52.5424 66.7079 53.0943 66.3518 53.501 66.1149L54.4581 65.5219C63.8674 59.8288 75.7443 52.5935 79.4499 41.3248C80.4377 38.3582 81.6352 33.8511 80.2569 30.2931C79.2724 27.6842 77.4971 25.4282 75.2795 24.1213Z" fill="#F7AA1B"/>
<path fill-rule="evenodd" clip-rule="evenodd" d="M10.5453 53.4239L24.5895 25.4124L24.1756 25.2049L9.979 53.5205L35.0412 77.7345L28.1236 88.3769L28.5118 88.6292L35.6374 77.6667L10.5453 53.4239Z" fill="#F7AA1B"/>
<path fill-rule="evenodd" clip-rule="evenodd" d="M35.6117 49.0426L41.8752 36.0574L41.4582 35.8562L35.0674 49.1055L48.1224 65.2689L48.4826 64.978L35.6117 49.0426Z" fill="#F7AA1B"/>
<path fill-rule="evenodd" clip-rule="evenodd" d="M57.4321 43.9544L67 24.973L67.4135 25.1813L57.8455 44.1628L57.4321 43.9544Z" fill="#F7AA1B"/>
<path fill-rule="evenodd" clip-rule="evenodd" d="M78.9838 62.256L94.615 23.0624L95.045 23.2339L79.3491 62.5897L60.2898 72.2743L60.0801 71.8615L78.9838 62.256Z" fill="#F7AA1B"/>
<path fill-rule="evenodd" clip-rule="evenodd" d="M70.9941 12.7394L75.6412 3.29288L76.0566 3.49724L71.2901 13.1865L39.7999 14.9616L33.1492 26.7342L32.7461 26.5065L39.5213 14.5136L70.9941 12.7394Z" fill="#F7AA1B"/>
<path d="M42.9928 35.693C42.9928 36.3143 42.4886 36.818 41.8667 36.818C41.2449 36.818 40.7407 36.3143 40.7407 35.693C40.7407 35.0716 41.2449 34.5679 41.8667 34.5679C42.4886 34.5679 42.9928 35.0716 42.9928 35.693Z" fill="#F7AA1B"/>
<path d="M61.357 72.1127C61.357 72.7341 60.8529 73.2378 60.231 73.2378C59.6091 73.2378 59.105 72.7341 59.105 72.1127C59.105 71.4914 59.6091 70.9877 60.231 70.9877C60.8529 70.9877 61.357 71.4914 61.357 72.1127Z" fill="#F7AA1B"/>
<path fill-rule="evenodd" clip-rule="evenodd" d="M57.2989 45.6143C57.7505 45.6143 58.1162 45.2485 58.1162 44.7979C58.1162 44.3472 57.7505 43.9815 57.2989 43.9815C56.8472 43.9815 56.4815 44.3472 56.4815 44.7979C56.4815 45.2485 56.8472 45.6143 57.2989 45.6143ZM57.2989 45.9229C57.9208 45.9229 58.4249 45.4192 58.4249 44.7979C58.4249 44.1765 57.9208 43.6728 57.2989 43.6728C56.677 43.6728 56.1729 44.1765 56.1729 44.7979C56.1729 45.4192 56.677 45.9229 57.2989 45.9229Z" fill="#F7AA1B"/>
<path fill-rule="evenodd" clip-rule="evenodd" d="M24.7373 25.3982C25.189 25.3982 25.5547 25.0325 25.5547 24.5818C25.5547 24.1312 25.189 23.7654 24.7373 23.7654C24.2857 23.7654 23.92 24.1312 23.92 24.5818C23.92 25.0325 24.2857 25.3982 24.7373 25.3982ZM24.7373 25.7069C25.3592 25.7069 25.8634 25.2032 25.8634 24.5818C25.8634 23.9605 25.3592 23.4568 24.7373 23.4568C24.1155 23.4568 23.6113 23.9605 23.6113 24.5818C23.6113 25.2032 24.1155 25.7069 24.7373 25.7069Z" fill="#F7AA1B"/>
</svg>
