<svg id="e4g3tw6fe6cd1" xmlns="http://www.w3.org/2000/svg" xmlns:xlink="http://www.w3.org/1999/xlink" viewBox="0 0 100 97" shape-rendering="geometricPrecision" text-rendering="geometricPrecision"><style><![CDATA[#e4g3tw6fe6cd12_to {animation: e4g3tw6fe6cd12_to__to 3000ms linear infinite normal forwards}@keyframes e4g3tw6fe6cd12_to__to { 0% {transform: translate(0.152114px,-0.152114px)} 33.333333% {transform: translate(-6.229350px,12.807050px)} 71.666667% {transform: translate(6.249412px,29.059356px)} 100% {transform: translate(6.249412px,29.059356px)} }#e4g3tw6fe6cd13_to {animation: e4g3tw6fe6cd13_to__to 3000ms linear infinite normal forwards}@keyframes e4g3tw6fe6cd13_to__to { 0% {transform: translate(0.152114px,-0.152114px)} 33.333333% {transform: translate(-6.229350px,12.807050px)} 71.666667% {transform: translate(6.249412px,29.059356px)} 100% {transform: translate(6.249412px,29.059356px)} }#e4g3tw6fe6cd14_to {animation: e4g3tw6fe6cd14_to__to 3000ms linear infinite normal forwards}@keyframes e4g3tw6fe6cd14_to__to { 0% {transform: translate(15.363505px,9.278949px)} 43.333333% {transform: translate(15.363505px,9.278949px)} 80% {transform: translate(24.794568px,-9.735290px)} 100% {transform: translate(24.794568px,-9.735290px)} }#e4g3tw6fe6cd15_to {animation: e4g3tw6fe6cd15_to__to 3000ms linear infinite normal forwards}@keyframes e4g3tw6fe6cd15_to__to { 0% {transform: translate(-16.884644px,-11.256429px)} 40% {transform: translate(-31.183351px,17.340986px)} 80% {transform: translate(-6.693012px,42.135554px)} 100% {transform: translate(-11.386813px,49.828172px)} }#e4g3tw6fe6cd16_to {animation: e4g3tw6fe6cd16_to__to 3000ms linear infinite normal forwards}@keyframes e4g3tw6fe6cd16_to__to { 0% {transform: translate(-0.152114px,0px)} 33.333333% {transform: translate(19.014239px,-9.583176px)} 76.666667% {transform: translate(34.377745px,-48.372224px)} 100% {transform: translate(34.377745px,-48.372224px)} }]]></style><path id="e4g3tw6fe6cd2" d="M17.744300,77.027400C11.638700,69.436000,9.601940,59.472600,11.848500,48.914600C16.546700,26.852600,38.923900,8.830540,61.727300,8.830540C84.530600,8.830540,99.233500,26.860700,94.535400,48.922600C89.837200,70.984600,67.468000,89.008300,44.656700,89.008300C38.597900,89.008300,33.054100,87.703000,28.094400,85.331000C28.073000,85.331200,28.051900,85.325800,28.033200,85.315400C28.014500,85.304900,27.998900,85.289700,27.987900,85.271400C27.977700,85.252700,27.962500,85.237200,27.944000,85.226700C27.925400,85.216100,27.904300,85.211000,27.883000,85.211800C26.888800,84.855600,25.599300,85.331000,24.897200,86.397800C21.619300,90.075000,13.612600,91.973300,9.666500,92.092500C15.734900,87.580600,17.490900,82.127500,18.020200,79.636300C18.181600,79.399400,18.239700,79.162500,18.315600,78.806400C18.443100,78.213400,18.355900,77.501100,17.831400,77.146600L17.744300,77.027400Z" fill="rgb(247,170,27)" stroke="none" stroke-width="1"/><path id="e4g3tw6fe6cd3" d="M13.625300,79.636300C7.195340,71.334300,5.003620,60.420100,7.451960,48.914600C12.677900,24.361400,37.471200,4.439420,62.659900,4.439420C87.964800,4.439420,104.251000,24.485500,99.023500,49.040300C93.796000,73.595100,69.004300,93.515500,43.814000,93.515500C37.755200,93.515500,32.067700,92.329500,26.964500,90.075100C21.990300,94.464600,13.457400,96.599700,8.467130,96.599700C7.879260,96.620300,7.290830,96.580300,6.711160,96.480500C4.172440,96.124300,3.499430,94.820700,3.463920,93.871600C3.436480,92.329500,4.451650,90.905000,6.530400,89.482100C11.930600,85.924100,13.271800,81.297700,13.625300,79.636300ZM11.849900,48.914600C9.603340,59.472600,11.640100,69.436000,17.745700,77.027400L17.839300,77.146700C18.357300,77.501200,18.444500,78.213400,18.323400,78.806400C18.247600,79.162500,18.197600,79.399400,18.028100,79.636300C17.498700,82.127600,15.742800,87.583800,9.674350,92.092600C13.620400,91.973300,21.627200,90.075100,24.905100,86.397800C25.607100,85.331100,26.896700,84.855700,27.890900,85.211800C27.912200,85.211000,27.933300,85.216200,27.951800,85.226700C27.970400,85.237200,27.985600,85.252700,27.995800,85.271400C28.006800,85.289800,28.022400,85.305000,28.041100,85.315400C28.059800,85.325900,28.080900,85.331300,28.102300,85.331100C33.061900,87.703100,38.605800,89.008300,44.664500,89.008300C67.475900,89.008300,89.854800,70.978100,94.543300,48.914600C99.231700,26.851000,84.538400,8.830540,61.727100,8.830540C38.915700,8.830540,16.546500,26.852700,11.848300,48.914600L11.849900,48.914600Z" fill="rgb(247,170,27)" stroke="none" stroke-width="1"/><path id="e4g3tw6fe6cd4" d="M59.196500,0C84.501400,0,100.788000,20.046100,95.560100,44.599200C90.332600,69.152400,65.540900,89.074400,40.350600,89.074400C34.291900,89.074400,28.604400,87.888400,23.501100,85.635600C18.526900,90.023500,9.994040,92.158600,5.003750,92.158600C4.415950,92.179000,3.827600,92.139500,3.247780,92.041000C0.709059,91.684900,0.036048,90.379600,0.000541,89.430500C-0.026895,87.888400,0.988271,86.465500,3.067020,85.042600C8.459190,81.483000,9.800370,76.856600,10.153800,75.196800C3.723890,66.893200,1.532170,55.980700,3.982120,44.475200C9.216120,19.926800,34.011000,0,59.196500,0ZM91.070200,44.475200C95.768300,22.411600,81.073400,4.381450,58.262100,4.381450C35.450700,4.381450,13.081500,22.418100,8.383330,44.481600C6.136730,55.038000,8.173520,65.001400,14.279000,72.592800L14.372700,72.712000C14.890700,73.068200,14.977900,73.780400,14.856800,74.373400C14.781000,74.727900,14.730900,74.966400,14.561500,75.203300C14.032100,77.694600,12.276100,83.150800,6.207740,87.658000C10.153800,87.538700,18.160600,85.642100,21.438500,81.964800C22.140500,80.896400,23.430100,80.422700,24.424300,80.778800C24.445700,80.778600,24.466800,80.784000,24.485500,80.794400C24.504200,80.804900,24.519800,80.820100,24.530800,80.838400C24.541500,80.856600,24.556800,80.871600,24.575300,80.881800C24.593700,80.892000,24.614600,80.897000,24.635700,80.896400C29.588900,83.268400,35.132700,84.567300,41.191400,84.567300C64.002800,84.567300,86.373600,66.543500,91.070200,44.481600L91.070200,44.475200Z" fill="rgb(239,210,68)" stroke="none" stroke-width="1"/><path id="e4g3tw6fe6cd5" d="M58.261900,4.387910C81.073300,4.387910,95.768200,22.418100,91.070000,44.481600C86.371900,66.545200,64.002700,84.567300,41.191300,84.567300C35.132600,84.567300,29.588700,83.262000,24.629100,80.890000C24.608000,80.890600,24.587200,80.885500,24.568700,80.875300C24.550300,80.865100,24.534900,80.850200,24.524200,80.832000C24.513200,80.813600,24.497600,80.798500,24.478900,80.788000C24.460200,80.777600,24.439100,80.772200,24.417700,80.772400C23.423500,80.416300,22.134000,80.890000,21.431900,81.958400C18.154000,85.635600,10.147200,87.532300,6.201170,87.651500C12.269600,83.139600,14.025500,77.688100,14.554900,75.196900C14.724400,74.960000,14.774400,74.721500,14.850300,74.367000C14.977800,73.774000,14.890600,73.061700,14.366100,72.705600L14.272500,72.586400C8.166950,64.995000,6.130160,55.031600,8.376760,44.475200C13.081400,22.418100,35.452200,4.387910,58.261900,4.387910Z" fill="rgb(239,210,68)" stroke="none" stroke-width="1"/><path id="e4g3tw6fe6cd6" d="M75.279500,24.121300C70.938000,21.630100,65.854100,21.512400,60.386100,23.765200C58.544600,24.595100,56.028500,26.375700,54.180500,27.793700C52.684400,25.895500,50.610500,24.472600,49.454900,23.765200C45.989800,21.630100,41.669300,21.274000,37.421400,22.816100C31.238400,25.072100,25.731600,30.289800,23.688400,35.983000C21.838800,41.321600,22.426300,47.488500,25.329800,52.827100C28.557600,58.876400,37.902300,65.755600,37.876500,65.879600C38.286400,66.134700,38.779800,66.219700,39.251600,66.116500C39.792800,66.015200,40.278300,65.720100,40.617000,65.286600C41.412700,64.337500,41.424000,63.151500,40.604100,62.558500C40.721900,62.558500,31.919500,55.916200,29.016000,50.577600C26.530500,46.065600,26.072200,40.970300,27.482800,36.580800C28.985300,32.310600,33.170300,28.277200,38.063700,26.498200C41.141500,25.431400,44.300000,25.668300,46.822600,27.210400C49.040100,28.515700,50.799300,30.294700,51.565900,31.722400C51.820900,32.197800,52.211500,32.552300,52.813500,32.552300C53.421000,32.543500,54.008700,32.335100,54.485500,31.959300C55.662100,30.892500,59.238600,28.045100,61.197900,27.215200C65.497400,25.442700,69.267600,25.553900,72.671400,27.452100C74.251400,28.401300,75.653900,30.180300,76.412500,32.197800C77.401800,34.806600,76.412500,38.364700,75.639400,40.855900C72.411500,50.464800,62.037200,56.750900,52.882900,62.326500L51.925800,62.919500L50.271600,63.986200C49.321400,64.653300,48.321000,65.245900,47.279300,65.758800L46.754800,65.997300C46.468400,66.128500,46.195400,66.287100,45.939800,66.471000C45.821900,66.471000,45.515300,66.234100,44.997200,65.878000L44.760000,65.878000C44.350200,65.622800,43.856600,65.537800,43.384900,65.641100C42.860500,65.783700,42.387200,66.071400,42.019500,66.471000C41.680600,66.944800,41.461100,67.420200,41.478800,67.893900C41.489100,68.120600,41.545800,68.342900,41.645400,68.546900C41.745100,68.750900,41.885600,68.932300,42.058200,69.079900L42.271300,69.199200C43.000800,69.674500,43.919100,70.385200,45.107000,70.385200C46.175400,70.385200,47.397100,69.674500,48.184700,69.318400L48.593100,69.079900C49.787400,68.486900,51.033300,67.657000,51.992000,67.064000C52.542400,66.707900,53.094300,66.351800,53.501000,66.114900L54.458100,65.521900C63.867400,59.828800,75.744300,52.593500,79.449900,41.324800C80.437700,38.358200,81.635200,33.851100,80.256900,30.293100C79.272400,27.684200,77.497100,25.428200,75.279500,24.121300Z" fill="rgb(247,170,27)" stroke="none" stroke-width="1"/><path id="e4g3tw6fe6cd7" d="M10.545300,53.423900L24.589500,25.412400L24.175600,25.204900L9.979000,53.520500L35.041200,77.734500L28.123600,88.376900L28.511800,88.629200L35.637400,77.666700L10.545300,53.423900Z" clip-rule="evenodd" fill="rgb(247,170,27)" fill-rule="evenodd" stroke="none" stroke-width="1"/><path id="e4g3tw6fe6cd8" d="M35.611700,49.042600L41.875200,36.057400L41.458200,35.856200L35.067400,49.105500L48.122400,65.268900L48.482600,64.978000L35.611700,49.042600Z" clip-rule="evenodd" fill="rgb(247,170,27)" fill-rule="evenodd" stroke="none" stroke-width="1"/><path id="e4g3tw6fe6cd9" d="M57.432100,43.954400L67,24.973000L67.413500,25.181300L57.845500,44.162800L57.432100,43.954400Z" clip-rule="evenodd" fill="rgb(247,170,27)" fill-rule="evenodd" stroke="none" stroke-width="1"/><path id="e4g3tw6fe6cd10" d="M78.983800,62.256000L94.615000,23.062400L95.045000,23.233900L79.349100,62.589700L60.289800,72.274300L60.080100,71.861500L78.983800,62.256000Z" clip-rule="evenodd" fill="rgb(247,170,27)" fill-rule="evenodd" stroke="none" stroke-width="1"/><path id="e4g3tw6fe6cd11" d="M70.994100,12.739400L75.641200,3.292880L76.056600,3.497240L71.290100,13.186500L39.799900,14.961600L33.149200,26.734200L32.746100,26.506500L39.521300,14.513600L70.994100,12.739400Z" clip-rule="evenodd" fill="rgb(247,170,27)" fill-rule="evenodd" stroke="none" stroke-width="1"/><g id="e4g3tw6fe6cd12_to" transform="translate(0.152114,-0.152114)"><path id="e4g3tw6fe6cd12" d="M42.992800,35.693000C42.992800,36.314300,42.488600,36.818000,41.866700,36.818000C41.244900,36.818000,40.740700,36.314300,40.740700,35.693000C40.740700,35.071600,41.244900,34.567900,41.866700,34.567900C42.488600,34.567900,42.992800,35.071600,42.992800,35.693000Z" transform="translate(0,0)" fill="rgb(247,170,27)" stroke="none" stroke-width="1"/></g><g id="e4g3tw6fe6cd13_to" transform="translate(0.152114,-0.152114)"><path id="e4g3tw6fe6cd13" d="M42.992800,35.693000C42.992800,36.314300,42.488600,36.818000,41.866700,36.818000C41.244900,36.818000,40.740700,36.314300,40.740700,35.693000C40.740700,35.071600,41.244900,34.567900,41.866700,34.567900C42.488600,34.567900,42.992800,35.071600,42.992800,35.693000Z" transform="translate(0,0)" fill="rgb(247,170,27)" stroke="none" stroke-width="1"/></g><g id="e4g3tw6fe6cd14_to" transform="translate(15.363505,9.278949)"><path id="e4g3tw6fe6cd14" d="M42.992800,35.693000C42.992800,36.314300,42.488600,36.818000,41.866700,36.818000C41.244900,36.818000,40.740700,36.314300,40.740700,35.693000C40.740700,35.071600,41.244900,34.567900,41.866700,34.567900C42.488600,34.567900,42.992800,35.071600,42.992800,35.693000Z" transform="translate(0,0)" fill="rgb(247,170,27)" stroke="none" stroke-width="1"/></g><g id="e4g3tw6fe6cd15_to" transform="translate(-16.884644,-11.256429)"><path id="e4g3tw6fe6cd15" d="M42.992800,35.693000C42.992800,36.314300,42.488600,36.818000,41.866700,36.818000C41.244900,36.818000,40.740700,36.314300,40.740700,35.693000C40.740700,35.071600,41.244900,34.567900,41.866700,34.567900C42.488600,34.567900,42.992800,35.071600,42.992800,35.693000Z" transform="translate(0,0)" fill="rgb(247,170,27)" stroke="none" stroke-width="1"/></g><g id="e4g3tw6fe6cd16_to" transform="translate(-0.152114,0)"><path id="e4g3tw6fe6cd16" d="M61.357000,72.112700C61.357000,72.734100,60.852900,73.237800,60.231000,73.237800C59.609100,73.237800,59.105000,72.734100,59.105000,72.112700C59.105000,71.491400,59.609100,70.987700,60.231000,70.987700C60.852900,70.987700,61.357000,71.491400,61.357000,72.112700Z" transform="translate(0,0)" fill="rgb(247,170,27)" stroke="none" stroke-width="1"/></g><path id="e4g3tw6fe6cd17" d="M57.298900,45.614300C57.750500,45.614300,58.116200,45.248500,58.116200,44.797900C58.116200,44.347200,57.750500,43.981500,57.298900,43.981500C56.847200,43.981500,56.481500,44.347200,56.481500,44.797900C56.481500,45.248500,56.847200,45.614300,57.298900,45.614300ZM57.298900,45.922900C57.920800,45.922900,58.424900,45.419200,58.424900,44.797900C58.424900,44.176500,57.920800,43.672800,57.298900,43.672800C56.677000,43.672800,56.172900,44.176500,56.172900,44.797900C56.172900,45.419200,56.677000,45.922900,57.298900,45.922900Z" clip-rule="evenodd" fill="rgb(247,170,27)" fill-rule="evenodd" stroke="none" stroke-width="1"/><path id="e4g3tw6fe6cd18" d="M57.298900,45.614300C57.750500,45.614300,58.116200,45.248500,58.116200,44.797900C58.116200,44.347200,57.750500,43.981500,57.298900,43.981500C56.847200,43.981500,56.481500,44.347200,56.481500,44.797900C56.481500,45.248500,56.847200,45.614300,57.298900,45.614300ZM57.298900,45.922900C57.920800,45.922900,58.424900,45.419200,58.424900,44.797900C58.424900,44.176500,57.920800,43.672800,57.298900,43.672800C56.677000,43.672800,56.172900,44.176500,56.172900,44.797900C56.172900,45.419200,56.677000,45.922900,57.298900,45.922900Z" transform="matrix(1 0 0 1 -15.05927700000001 -9.27894900000000)" clip-rule="evenodd" fill="rgb(247,170,27)" fill-rule="evenodd" stroke="none" stroke-width="1"/><path id="e4g3tw6fe6cd19" d="M24.737300,25.398200C25.189000,25.398200,25.554700,25.032500,25.554700,24.581800C25.554700,24.131200,25.189000,23.765400,24.737300,23.765400C24.285700,23.765400,23.920000,24.131200,23.920000,24.581800C23.920000,25.032500,24.285700,25.398200,24.737300,25.398200ZM24.737300,25.706900C25.359200,25.706900,25.863400,25.203200,25.863400,24.581800C25.863400,23.960500,25.359200,23.456800,24.737300,23.456800C24.115500,23.456800,23.611300,23.960500,23.611300,24.581800C23.611300,25.203200,24.115500,25.706900,24.737300,25.706900Z" clip-rule="evenodd" fill="rgb(247,170,27)" fill-rule="evenodd" stroke="none" stroke-width="1"/></svg>