<svg width="100" height="89" viewBox="0 0 100 89" fill="none" xmlns="http://www.w3.org/2000/svg">
<path d="M77.7094 54.9318C80.3763 56.8646 78.5344 60.3374 82.9668 61.4743L99.4819 45.4228C100.261 44.6661 100.149 43.5149 99.233 42.8506L79.8838 28.817C81.0768 24.8361 85.3723 26.5433 87.68 24.2979C91.3621 20.7202 90.6332 15.1246 86.0532 11.8027C81.4733 8.48086 74.6176 8.57857 71.0938 12.2646C68.5354 14.9416 70.7595 18.0219 66.937 19.4252L47.5221 5.34019C46.6065 4.67582 45.2339 4.75043 44.4552 5.5054L28.3881 21.1217C30.166 26.1738 34.4508 23.5518 37.3631 25.6639C41.6959 28.8082 42.055 34.4216 38.1631 38.2053C34.2712 41.989 27.4689 42.6285 23.2659 39.3617C19.9643 36.7931 22.1209 33.1443 16.6431 32.5333L0.517396 48.2064C-0.259556 48.9631 -0.149326 50.1143 0.766304 50.7786L18.069 63.3289C18.9118 71.5003 13.5407 68.436 10.0311 71.6087C6.19786 75.0726 7.07793 80.782 11.6579 84.1038C16.2378 87.4257 22.937 87.2196 26.6191 83.642C29.4549 80.8832 24.8287 76.5026 35.1744 75.7388L52.4772 88.2908C53.3928 88.9534 54.7671 88.8788 55.5441 88.1238L72.1108 72.0208C70.3328 69.0826 66.777 70.7773 63.6123 68.6296C59.1515 65.6098 58.9204 59.8702 62.8122 56.0883C66.7041 52.3063 73.3766 51.7876 77.7094 54.9318Z" fill="#24AFFC"/>
<path d="M77.7094 50.0449C80.3763 51.9794 78.5344 55.4505 82.9668 56.5891L99.4819 40.5359C100.261 39.7809 100.149 38.628 99.233 37.9654L79.8838 23.9319C81.0768 19.951 85.3723 21.6581 87.68 19.4127C91.3621 15.8351 90.6332 10.2412 86.0532 6.91758C81.4733 3.59394 74.6176 3.68987 71.092 7.37766C68.5336 10.0547 70.7578 13.1332 66.9352 14.5365L47.5221 0.453274C46.6065 -0.211097 45.2339 -0.13649 44.4552 0.620255L28.3881 16.2365C30.166 21.2886 34.4508 18.6649 37.3631 20.777C41.6959 23.9212 42.055 29.5364 38.1631 33.3184C34.2712 37.1003 27.4689 37.7434 23.2659 34.4748C19.9643 31.9061 22.1209 28.2574 16.6431 27.6463L0.517396 43.3213C-0.259556 44.0762 -0.149326 45.2291 0.766304 45.8917L18.0744 58.4384C18.9171 66.6098 13.546 63.5455 10.0364 66.7164C6.19786 70.1857 7.08682 75.895 11.6632 79.2222C16.2396 82.5494 22.9423 82.3362 26.6244 78.7586C29.4602 76.0016 24.834 71.621 35.1798 70.8554L52.4825 83.4074C53.3981 84.0718 54.7725 83.9972 55.5494 83.2404L72.1161 67.1427C70.3382 64.2028 66.7823 65.8886 63.6176 63.7498C59.1568 60.7299 58.9257 54.9922 62.8176 51.2102C66.7094 47.4283 73.3766 46.9025 77.7094 50.0449Z" fill="#86DCEA"/>
<path fill-rule="evenodd" clip-rule="evenodd" d="M3.15771 40.7662L3.42047 40.415L22.4614 54.6614L35.7072 52.8849L44.7576 59.6892L44.494 60.0398L35.5873 53.3435L22.3421 55.1199L3.15771 40.7662Z" fill="#4A96F0"/>
<path fill-rule="evenodd" clip-rule="evenodd" d="M33.1887 60.5906L58.8916 79.762L58.6294 80.1136L33.1281 61.0925L19.8599 66.7113L12.3339 74.2308L12.0239 73.9206L19.6103 66.3407L33.1887 60.5906Z" fill="#4A96F0"/>
<path fill-rule="evenodd" clip-rule="evenodd" d="M42.0865 2.66379L71.6324 23.7755L51.9569 43.5235V61.7992L66.0055 72.5693L65.7387 72.9174L51.5183 62.0156V43.3423L70.9571 23.8319L41.8315 3.02065L42.0865 2.66379Z" fill="#4A96F0"/>
<path fill-rule="evenodd" clip-rule="evenodd" d="M71.9857 30.8043L93.9118 46.2736L93.659 46.6319L72.026 31.3695L55.9572 46.5473V54.1801H55.5186V46.3582L71.9857 30.8043Z" fill="#4A96F0"/>
<path fill-rule="evenodd" clip-rule="evenodd" d="M58.2056 24.1348L42.2518 40.4311L29.2064 44.0267L12.2319 32.3334L12.4807 31.9722L29.2868 43.5496L42.0212 40.0397L57.8922 23.8279L58.2056 24.1348Z" fill="#4A96F0"/>
<path fill-rule="evenodd" clip-rule="evenodd" d="M52.9447 19.5418L36.8545 8.1729L37.1076 7.8147L53.1978 19.1836L52.9447 19.5418Z" fill="#4A96F0"/>
<path d="M58.6716 24.159C58.6716 24.7476 58.194 25.2248 57.6048 25.2248C57.0157 25.2248 56.5381 24.7476 56.5381 24.159C56.5381 23.5703 57.0157 23.0931 57.6048 23.0931C58.194 23.0931 58.6716 23.5703 58.6716 24.159Z" fill="#4A96F0"/>
<path d="M56.8938 54.1801C56.8938 54.7687 56.4162 55.2459 55.827 55.2459C55.2379 55.2459 54.7603 54.7687 54.7603 54.1801C54.7603 53.5914 55.2379 53.1142 55.827 53.1142C56.4162 53.1142 56.8938 53.5914 56.8938 54.1801Z" fill="#4A96F0"/>
<path fill-rule="evenodd" clip-rule="evenodd" d="M53.6932 20.6691C54.1211 20.6691 54.4676 20.3226 54.4676 19.8956C54.4676 19.4687 54.1211 19.1222 53.6932 19.1222C53.2653 19.1222 52.9189 19.4687 52.9189 19.8956C52.9189 20.3226 53.2653 20.6691 53.6932 20.6691ZM53.6932 20.9615C54.2824 20.9615 54.76 20.4843 54.76 19.8956C54.76 19.307 54.2824 18.8298 53.6932 18.8298C53.1041 18.8298 52.6265 19.307 52.6265 19.8956C52.6265 20.4843 53.1041 20.9615 53.6932 20.9615Z" fill="#4A96F0"/>
<path fill-rule="evenodd" clip-rule="evenodd" d="M81.2513 10.8989C81.6792 10.8989 82.0257 10.5524 82.0257 10.1255C82.0257 9.69854 81.6792 9.35203 81.2513 9.35203C80.8234 9.35203 80.477 9.69854 80.477 10.1255C80.477 10.5524 80.8234 10.8989 81.2513 10.8989ZM81.2513 11.1913C81.8405 11.1913 82.3181 10.7141 82.3181 10.1255C82.3181 9.53682 81.8405 9.05963 81.2513 9.05963C80.6622 9.05963 80.1846 9.53682 80.1846 10.1255C80.1846 10.7141 80.6622 11.1913 81.2513 11.1913Z" fill="#4A96F0"/>
<path fill-rule="evenodd" clip-rule="evenodd" d="M45.3368 61.1709C45.7647 61.1709 46.1111 60.8244 46.1111 60.3974C46.1111 59.9705 45.7647 59.624 45.3368 59.624C44.9089 59.624 44.5624 59.9705 44.5624 60.3974C44.5624 60.8244 44.9089 61.1709 45.3368 61.1709ZM45.3368 61.4633C45.9259 61.4633 46.4035 60.9861 46.4035 60.3974C46.4035 59.8088 45.9259 59.3316 45.3368 59.3316C44.7476 59.3316 44.27 59.8088 44.27 60.3974C44.27 60.9861 44.7476 61.4633 45.3368 61.4633Z" fill="#4A96F0"/>
<path d="M12.6233 74.6086C12.6233 75.1973 12.1457 75.6744 11.5565 75.6744C10.9673 75.6744 10.4897 75.1973 10.4897 74.6086C10.4897 74.02 10.9673 73.5428 11.5565 73.5428C12.1457 73.5428 12.6233 74.02 12.6233 74.6086Z" fill="#4A96F0"/>
<path fill-rule="evenodd" clip-rule="evenodd" d="M11.5565 75.382C11.9844 75.382 12.3309 75.0355 12.3309 74.6086C12.3309 74.1817 11.9844 73.8352 11.5565 73.8352C11.1286 73.8352 10.7821 74.1817 10.7821 74.6086C10.7821 75.0355 11.1286 75.382 11.5565 75.382ZM11.5565 75.6744C12.1457 75.6744 12.6233 75.1973 12.6233 74.6086C12.6233 74.02 12.1457 73.5428 11.5565 73.5428C10.9673 73.5428 10.4897 74.02 10.4897 74.6086C10.4897 75.1973 10.9673 75.6744 11.5565 75.6744Z" fill="#4A96F0"/>
<path fill-rule="evenodd" clip-rule="evenodd" d="M75.1796 16.1531L80.8662 10.9084L80.5689 10.586L74.699 15.9997L76.8332 26.1282L71.8535 30.9291L72.1579 31.2448L77.3124 26.2754L75.1796 16.1531Z" fill="#4A96F0"/>
</svg>
