<svg id="e7uefw3ulsnm1" xmlns="http://www.w3.org/2000/svg" xmlns:xlink="http://www.w3.org/1999/xlink" viewBox="0 0 100 89" shape-rendering="geometricPrecision" text-rendering="geometricPrecision"><style><![CDATA[#e7uefw3ulsnm12_to {animation: e7uefw3ulsnm12_to__to 2500ms linear infinite normal forwards}@keyframes e7uefw3ulsnm12_to__to { 0% {transform: translate(0px,0px)} 12% {transform: translate(-15.264754px,15.723844px)} 28% {transform: translate(-28.234056px,19.396567px)} 48% {transform: translate(-44.761309px,8.263626px)} 100% {transform: translate(-44.761309px,8.263626px)} }#e7uefw3ulsnm13_to {animation: e7uefw3ulsnm13_to__to 2500ms linear infinite normal forwards}@keyframes e7uefw3ulsnm13_to__to { 0% {transform: translate(25.177083px,-43.979315px)} 4% {transform: translate(19.094135px,-38.240685px)} 12% {transform: translate(21.045269px,-27.911152px)} 24% {transform: translate(-0.072888px,-7.711177px)} 32% {transform: translate(-0.187661px,-0.136186px)} 48% {transform: translate(0.041884px,-7.940722px)} 68% {transform: translate(15.995274px,-23.320248px)} 80% {transform: translate(37.113430px,-8.285039px)} 100% {transform: translate(37.113430px,-8.285039px)} }#e7uefw3ulsnm18_to {animation: e7uefw3ulsnm18_to__to 2500ms linear infinite normal forwards}@keyframes e7uefw3ulsnm18_to__to { 0% {transform: translate(-0px,0px)} 12% {transform: translate(8.570602px,-7.778970px)} 20% {transform: translate(21.661873px,-13.503000px)} 36% {transform: translate(43.962100px,2.131600px)} 100% {transform: translate(43.962100px,2.131600px)} }]]></style><path id="e7uefw3ulsnm2" d="M12.623300,74.608600C12.623300,75.197300,12.145700,75.674400,11.556500,75.674400C10.967300,75.674400,10.489700,75.197300,10.489700,74.608600C10.489700,74.020000,10.967300,73.542800,11.556500,73.542800C12.145700,73.542800,12.623300,74.020000,12.623300,74.608600Z" transform="matrix(1 0 0 1 0 -0.00000000000001)" fill="rgb(74,150,240)" stroke="none" stroke-width="1"/><path id="e7uefw3ulsnm3" d="M12.623300,74.608600C12.623300,75.197300,12.145700,75.674400,11.556500,75.674400C10.967300,75.674400,10.489700,75.197300,10.489700,74.608600C10.489700,74.020000,10.967300,73.542800,11.556500,73.542800C12.145700,73.542800,12.623300,74.020000,12.623300,74.608600Z" transform="matrix(1 0 0 1 0 -0.00000000000001)" fill="rgb(74,150,240)" stroke="none" stroke-width="1"/><path id="e7uefw3ulsnm4" d="M77.709400,54.931800C80.376300,56.864600,78.534400,60.337400,82.966800,61.474300L99.481900,45.422800C100.261000,44.666100,100.149000,43.514900,99.233000,42.850600L79.883800,28.817000C81.076800,24.836100,85.372300,26.543300,87.680000,24.297900C91.362100,20.720200,90.633200,15.124600,86.053200,11.802700C81.473300,8.480860,74.617600,8.578570,71.093800,12.264600C68.535400,14.941600,70.759500,18.021900,66.937000,19.425200L47.522100,5.340190C46.606500,4.675820,45.233900,4.750430,44.455200,5.505400L28.388100,21.121700C30.166000,26.173800,34.450800,23.551800,37.363100,25.663900C41.695900,28.808200,42.055000,34.421600,38.163100,38.205300C34.271200,41.989000,27.468900,42.628500,23.265900,39.361700C19.964300,36.793100,22.120900,33.144300,16.643100,32.533300L0.517396,48.206400C-0.259556,48.963100,-0.149326,50.114300,0.766304,50.778600L18.069000,63.328900C18.911800,71.500300,13.540700,68.436000,10.031100,71.608700C6.197860,75.072600,7.077930,80.782000,11.657900,84.103800C16.237800,87.425700,22.937000,87.219600,26.619100,83.642000C29.454900,80.883200,24.828700,76.502600,35.174400,75.738800L52.477200,88.290800C53.392800,88.953400,54.767100,88.878800,55.544100,88.123800L72.110800,72.020800C70.332800,69.082600,66.777000,70.777300,63.612300,68.629600C59.151500,65.609800,58.920400,59.870200,62.812200,56.088300C66.704100,52.306300,73.376600,51.787600,77.709400,54.931800Z" fill="rgb(36,175,252)" stroke="none" stroke-width="1"/><path id="e7uefw3ulsnm5" d="M77.709400,50.044900C80.376300,51.979400,78.534400,55.450500,82.966800,56.589100L99.481900,40.535900C100.261000,39.780900,100.149000,38.628000,99.233000,37.965400L79.883800,23.931900C81.076800,19.951000,85.372300,21.658100,87.680000,19.412700C91.362100,15.835100,90.633200,10.241200,86.053200,6.917580C81.473300,3.593940,74.617600,3.689870,71.092000,7.377660C68.533600,10.054700,70.757800,13.133200,66.935200,14.536500L47.522100,0.453274C46.606500,-0.211097,45.233900,-0.136490,44.455200,0.620255L28.388100,16.236500C30.166000,21.288600,34.450800,18.664900,37.363100,20.777000C41.695900,23.921200,42.055000,29.536400,38.163100,33.318400C34.271200,37.100300,27.468900,37.743400,23.265900,34.474800C19.964300,31.906100,22.120900,28.257400,16.643100,27.646300L0.517396,43.321300C-0.259556,44.076200,-0.149326,45.229100,0.766304,45.891700L18.074400,58.438400C18.917100,66.609800,13.546000,63.545500,10.036400,66.716400C6.197860,70.185700,7.086820,75.895000,11.663200,79.222200C16.239600,82.549400,22.942300,82.336200,26.624400,78.758600C29.460200,76.001600,24.834000,71.621000,35.179800,70.855400L52.482500,83.407400C53.398100,84.071800,54.772500,83.997200,55.549400,83.240400L72.116100,67.142700C70.338200,64.202800,66.782300,65.888600,63.617600,63.749800C59.156800,60.729900,58.925700,54.992200,62.817600,51.210200C66.709400,47.428300,73.376600,46.902500,77.709400,50.044900Z" transform="matrix(1 0 0 1 -0.16032799999999 -0.62773899999999)" fill="rgb(134,220,234)" stroke="none" stroke-width="1"/><path id="e7uefw3ulsnm6" d="M3.157710,40.766200L3.420470,40.415000L22.461400,54.661400L35.707200,52.884900L44.757600,59.689200L44.494000,60.039800L35.587300,53.343500L22.342100,55.119900L3.157710,40.766200Z" clip-rule="evenodd" fill="rgb(74,150,240)" fill-rule="evenodd" stroke="none" stroke-width="1"/><path id="e7uefw3ulsnm7" d="M33.188700,60.590600L58.891600,79.762000L58.629400,80.113600L33.128100,61.092500L19.859900,66.711300L12.333900,74.230800L12.023900,73.920600L19.610300,66.340700L33.188700,60.590600Z" clip-rule="evenodd" fill="rgb(74,150,240)" fill-rule="evenodd" stroke="none" stroke-width="1"/><path id="e7uefw3ulsnm8" d="M42.086500,2.663790L71.632400,23.775500L51.956900,43.523500L51.956900,61.799200L66.005500,72.569300L65.738700,72.917400L51.518300,62.015600L51.518300,43.342300L70.957100,23.831900L41.831500,3.020650L42.086500,2.663790Z" clip-rule="evenodd" fill="rgb(74,150,240)" fill-rule="evenodd" stroke="none" stroke-width="1"/><path id="e7uefw3ulsnm9" d="M71.985700,30.804300L93.911800,46.273600L93.659000,46.631900L72.026000,31.369500L55.957200,46.547300L55.957200,54.180100L55.518600,54.180100L55.518600,46.358200L71.985700,30.804300Z" clip-rule="evenodd" fill="rgb(74,150,240)" fill-rule="evenodd" stroke="none" stroke-width="1"/><path id="e7uefw3ulsnm10" d="M58.205600,24.134800L42.251800,40.431100L29.206400,44.026700L12.231900,32.333400L12.480700,31.972200L29.286800,43.549600L42.021200,40.039700L57.892200,23.827900L58.205600,24.134800Z" clip-rule="evenodd" fill="rgb(74,150,240)" fill-rule="evenodd" stroke="none" stroke-width="1"/><path id="e7uefw3ulsnm11" d="M52.944700,19.541800L36.854500,8.172900L37.107600,7.814700L53.197800,19.183600L52.944700,19.541800Z" clip-rule="evenodd" fill="rgb(74,150,240)" fill-rule="evenodd" stroke="none" stroke-width="1"/><g id="e7uefw3ulsnm12_to" transform="translate(0,0)"><path id="e7uefw3ulsnm12" d="M58.671600,24.159000C58.671600,24.747600,58.194000,25.224800,57.604800,25.224800C57.015700,25.224800,56.538100,24.747600,56.538100,24.159000C56.538100,23.570300,57.015700,23.093100,57.604800,23.093100C58.194000,23.093100,58.671600,23.570300,58.671600,24.159000Z" transform="translate(0,0)" fill="rgb(74,150,240)" stroke="none" stroke-width="1"/></g><g id="e7uefw3ulsnm13_to" transform="translate(25.177083,-43.979315)"><path id="e7uefw3ulsnm13" d="M56.893800,54.180100C56.893800,54.768700,56.416200,55.245900,55.827000,55.245900C55.237900,55.245900,54.760300,54.768700,54.760300,54.180100C54.760300,53.591400,55.237900,53.114200,55.827000,53.114200C56.416200,53.114200,56.893800,53.591400,56.893800,54.180100Z" transform="translate(0,0)" fill="rgb(74,150,240)" stroke="none" stroke-width="1"/></g><path id="e7uefw3ulsnm14" d="M53.693200,20.669100C54.121100,20.669100,54.467600,20.322600,54.467600,19.895600C54.467600,19.468700,54.121100,19.122200,53.693200,19.122200C53.265300,19.122200,52.918900,19.468700,52.918900,19.895600C52.918900,20.322600,53.265300,20.669100,53.693200,20.669100ZM53.693200,20.961500C54.282400,20.961500,54.760000,20.484300,54.760000,19.895600C54.760000,19.307000,54.282400,18.829800,53.693200,18.829800C53.104100,18.829800,52.626500,19.307000,52.626500,19.895600C52.626500,20.484300,53.104100,20.961500,53.693200,20.961500Z" clip-rule="evenodd" fill="rgb(74,150,240)" fill-rule="evenodd" stroke="none" stroke-width="1"/><path id="e7uefw3ulsnm15" d="M53.693200,20.669100C54.121100,20.669100,54.467600,20.322600,54.467600,19.895600C54.467600,19.468700,54.121100,19.122200,53.693200,19.122200C53.265300,19.122200,52.918900,19.468700,52.918900,19.895600C52.918900,20.322600,53.265300,20.669100,53.693200,20.669100ZM53.693200,20.961500C54.282400,20.961500,54.760000,20.484300,54.760000,19.895600C54.760000,19.307000,54.282400,18.829800,53.693200,18.829800C53.104100,18.829800,52.626500,19.307000,52.626500,19.895600C52.626500,20.484300,53.104100,20.961500,53.693200,20.961500Z" transform="matrix(1 0 0 1 4.68390900000000 3.57456200000000)" clip-rule="evenodd" fill="rgb(74,150,240)" fill-rule="evenodd" stroke="none" stroke-width="1"/><path id="e7uefw3ulsnm16" d="M81.251300,10.898900C81.679200,10.898900,82.025700,10.552400,82.025700,10.125500C82.025700,9.698540,81.679200,9.352030,81.251300,9.352030C80.823400,9.352030,80.477000,9.698540,80.477000,10.125500C80.477000,10.552400,80.823400,10.898900,81.251300,10.898900ZM81.251300,11.191300C81.840500,11.191300,82.318100,10.714100,82.318100,10.125500C82.318100,9.536820,81.840500,9.059630,81.251300,9.059630C80.662200,9.059630,80.184600,9.536820,80.184600,10.125500C80.184600,10.714100,80.662200,11.191300,81.251300,11.191300Z" clip-rule="evenodd" fill="rgb(74,150,240)" fill-rule="evenodd" stroke="none" stroke-width="1"/><path id="e7uefw3ulsnm17" d="M45.336800,61.170900C45.764700,61.170900,46.111100,60.824400,46.111100,60.397400C46.111100,59.970500,45.764700,59.624000,45.336800,59.624000C44.908900,59.624000,44.562400,59.970500,44.562400,60.397400C44.562400,60.824400,44.908900,61.170900,45.336800,61.170900ZM45.336800,61.463300C45.925900,61.463300,46.403500,60.986100,46.403500,60.397400C46.403500,59.808800,45.925900,59.331600,45.336800,59.331600C44.747600,59.331600,44.270000,59.808800,44.270000,60.397400C44.270000,60.986100,44.747600,61.463300,45.336800,61.463300Z" clip-rule="evenodd" fill="rgb(74,150,240)" fill-rule="evenodd" stroke="none" stroke-width="1"/><g id="e7uefw3ulsnm18_to" transform="translate(-0,0)"><path id="e7uefw3ulsnm18" d="M12.623300,74.608600C12.623300,75.197300,12.145700,75.674400,11.556500,75.674400C10.967300,75.674400,10.489700,75.197300,10.489700,74.608600C10.489700,74.020000,10.967300,73.542800,11.556500,73.542800C12.145700,73.542800,12.623300,74.020000,12.623300,74.608600Z" transform="translate(0,0)" fill="rgb(74,150,240)" stroke="none" stroke-width="1"/></g><path id="e7uefw3ulsnm19" d="M11.556500,75.382000C11.984400,75.382000,12.330900,75.035500,12.330900,74.608600C12.330900,74.181700,11.984400,73.835200,11.556500,73.835200C11.128600,73.835200,10.782100,74.181700,10.782100,74.608600C10.782100,75.035500,11.128600,75.382000,11.556500,75.382000ZM11.556500,75.674400C12.145700,75.674400,12.623300,75.197300,12.623300,74.608600C12.623300,74.020000,12.145700,73.542800,11.556500,73.542800C10.967300,73.542800,10.489700,74.020000,10.489700,74.608600C10.489700,75.197300,10.967300,75.674400,11.556500,75.674400Z" clip-rule="evenodd" fill="rgb(74,150,240)" fill-rule="evenodd" stroke="none" stroke-width="1"/><path id="e7uefw3ulsnm20" d="M75.179600,16.153100L80.866200,10.908400L80.568900,10.586000L74.699000,15.999700L76.833200,26.128200L71.853500,30.929100L72.157900,31.244800L77.312400,26.275400L75.179600,16.153100Z" transform="matrix(1 0 0 1 -0.11477300000000 0)" clip-rule="evenodd" fill="rgb(74,150,240)" fill-rule="evenodd" stroke="none" stroke-width="1"/></svg>