<svg id="ecnd9afrr5wb1" xmlns="http://www.w3.org/2000/svg" xmlns:xlink="http://www.w3.org/1999/xlink" viewBox="0 0 653 768" shape-rendering="geometricPrecision" text-rendering="geometricPrecision"><style><![CDATA[#ecnd9afrr5wb8 {animation: ecnd9afrr5wb8__fl 5000ms linear infinite alternate forwards}@keyframes ecnd9afrr5wb8__fl { 0% {filter: hue-rotate(-130deg) saturate(40%)} 95% {filter: hue-rotate(143deg) saturate(164%)} 100% {filter: hue-rotate(143deg) saturate(164%)} }]]></style><defs><linearGradient id="ecnd9afrr5wb6-fill" x1="496.958000" y1="-147.688000" x2="12.650600" y2="604.933000" spreadMethod="pad" gradientUnits="userSpaceOnUse"><stop id="ecnd9afrr5wb6-fill-0" offset="0%" stop-color="rgb(255,214,68)"/><stop id="ecnd9afrr5wb6-fill-1" offset="35.937500%" stop-color="rgb(74,150,240)"/><stop id="ecnd9afrr5wb6-fill-2" offset="67.187500%" stop-color="rgb(255,65,77)"/><stop id="ecnd9afrr5wb6-fill-3" offset="83.030200%" stop-color="rgb(255,125,60)"/><stop id="ecnd9afrr5wb6-fill-4" offset="100%" stop-color="rgb(254,218,34)"/><stop id="ecnd9afrr5wb6-fill-5" offset="100%" stop-color="rgb(255,142,100)"/></linearGradient><radialGradient id="ecnd9afrr5wb8-fill" cx="166.216995" cy="258" r="425.280012" spreadMethod="pad" gradientUnits="userSpaceOnUse"><stop id="ecnd9afrr5wb8-fill-0" offset="3.527980%" stop-color="rgb(254,218,34)"/><stop id="ecnd9afrr5wb8-fill-1" offset="32.560900%" stop-color="rgb(82,0,255)"/><stop id="ecnd9afrr5wb8-fill-2" offset="48.097200%" stop-color="rgb(114,61,87)"/><stop id="ecnd9afrr5wb8-fill-3" offset="58.080900%" stop-color="rgb(255,60,142)"/><stop id="ecnd9afrr5wb8-fill-4" offset="83.996100%" stop-color="rgb(217,248,27)"/><stop id="ecnd9afrr5wb8-fill-5" offset="100%" stop-color="rgb(255,142,100)"/></radialGradient><linearGradient id="ecnd9afrr5wb12-fill" x1="342.986000" y1="288.541000" x2="487.660000" y2="406.360000" spreadMethod="pad" gradientUnits="userSpaceOnUse"><stop id="ecnd9afrr5wb12-fill-0" offset="0%" stop-color="rgb(33,30,30)"/><stop id="ecnd9afrr5wb12-fill-1" offset="22.410600%" stop-color="rgba(58,55,55,0.772912)"/><stop id="ecnd9afrr5wb12-fill-2" offset="39.641600%" stop-color="rgba(87,85,85,0.5)"/><stop id="ecnd9afrr5wb12-fill-3" offset="66.493500%" stop-color="rgba(145,144,144,0.2)"/><stop id="ecnd9afrr5wb12-fill-4" offset="100%" stop-color="rgba(196,196,196,0)"/></linearGradient></defs><g id="ecnd9afrr5wb2" mask="url(#ecnd9afrr5wb11)"><g id="ecnd9afrr5wb3"><g id="ecnd9afrr5wb4" mask="url(#ecnd9afrr5wb9)"><g id="ecnd9afrr5wb5"><path id="ecnd9afrr5wb6" d="M360.991000,792.152000C233.292000,877.905000,121.056000,884.778000,-29.381100,852.120000C-259.870000,802.084000,-544.574000,634.153000,-446.364000,421.896000C-380.486000,279.515000,-206.925000,347.175000,-146.452000,202.501000C-90.646900,68.993000,-255.368000,5.037230,-178.391000,-117.883000C-97.227800,-247.488000,55.672800,-238.335000,211.981000,-177.851000C368.289000,-117.368000,539.442000,87.328800,552.779000,322.883000C563.928000,519.801000,526.710000,680.869000,360.991000,792.152000Z" fill="url(#ecnd9afrr5wb6-fill)" stroke="none" stroke-width="1"/><g id="ecnd9afrr5wb7" style="mix-blend-mode:lighten" opacity="0.5"><path id="ecnd9afrr5wb8" style="filter:hue-rotate(-130deg) saturate(40%)" d="M469.990000,897.756000C342.317000,983.676000,230.076000,990.524000,79.617600,957.724000C-150.905000,907.471000,-435.691000,739.001000,-337.559000,526.242000C-271.732000,383.524000,-98.134000,451.424000,-37.714400,306.406000C18.041900,172.579000,-146.714000,108.397000,-69.780700,-14.806600C11.337000,-144.710000,164.250000,-135.473000,320.591000,-74.774800C476.933000,-14.076300,648.176000,191.208000,661.606000,427.367000C672.833000,624.790000,635.675000,786.254000,469.990000,897.756000Z" fill="url(#ecnd9afrr5wb8-fill)" stroke="none" stroke-width="1"/></g></g><mask id="ecnd9afrr5wb9" mask-type="alpha"><path id="ecnd9afrr5wb10" d="M-22.697900,419.586000C-46.459900,264.904000,52.888900,121.289000,199.204000,98.812600C376.400000,47.041200,516.960000,159.453000,540.722000,314.135000C553.220000,395.492000,547.890000,513.213000,479.654000,584.015000C418.156000,647.826000,404.571000,650.177000,257.308000,662.147000C110.994000,684.623000,15.322000,667.083000,-22.697900,419.586000Z" fill="rgb(255,255,255)" stroke="none" stroke-width="1"/></mask></g></g><mask id="ecnd9afrr5wb11" mask-type="alpha"><rect id="ecnd9afrr5wb12" width="716.377000" height="666.117000" rx="0" ry="0" transform="matrix(-0.98840659856796 0.15183015167713 -0.15183015167713 -0.98840659856796 653.00001688301541 658.99998433887981)" fill="url(#ecnd9afrr5wb12-fill)" stroke="none" stroke-width="1"/></mask></g></svg>