<svg width="653" height="768" viewBox="0 0 653 768" fill="none" xmlns="http://www.w3.org/2000/svg">
<mask id="mask0" mask-type="alpha" maskUnits="userSpaceOnUse" x="-157" y="0" width="811" height="768">
<rect x="653" y="659" width="716.377" height="666.117" transform="rotate(171.267 653 659)" fill="url(#paint0_linear)"/>
</mask>
<g mask="url(#mask0)">
<mask id="mask1" mask-type="alpha" maskUnits="userSpaceOnUse" x="-67" y="49" width="655" height="655">
<path d="M-22.6979 419.586C-46.4599 264.904 52.8889 121.289 199.204 98.8126C376.4 47.0412 516.96 159.453 540.722 314.135C553.22 395.492 547.89 513.213 479.654 584.015C418.156 647.826 404.571 650.177 257.308 662.147C110.994 684.623 15.322 667.083 -22.6979 419.586Z" fill="white"/>
</mask>
<g mask="url(#mask1)">
<path d="M360.991 792.152C233.292 877.905 121.056 884.778 -29.3811 852.12C-259.87 802.084 -544.574 634.153 -446.364 421.896C-380.486 279.515 -206.925 347.175 -146.452 202.501C-90.6469 68.993 -255.368 5.03723 -178.391 -117.883C-97.2278 -247.488 55.6728 -238.335 211.981 -177.851C368.289 -117.368 539.442 87.3288 552.779 322.883C563.928 519.801 526.71 680.869 360.991 792.152Z" fill="url(#paint1_linear)"/>
<g style="mix-blend-mode:lighten" opacity="0.5">
<path d="M469.99 897.756C342.317 983.676 230.076 990.524 79.6176 957.724C-150.905 907.471 -435.691 739.001 -337.559 526.242C-271.732 383.524 -98.134 451.424 -37.7144 306.406C18.0419 172.579 -146.714 108.397 -69.7807 -14.8066C11.337 -144.71 164.25 -135.473 320.591 -74.7748C476.933 -14.0763 648.176 191.208 661.606 427.367C672.833 624.79 635.675 786.254 469.99 897.756Z" fill="url(#paint2_angular)"/>
</g>
</g>
</g>
<defs>
<linearGradient id="paint0_linear" x1="995.986" y1="947.541" x2="1140.66" y2="1065.36" gradientUnits="userSpaceOnUse">
<stop stop-color="#211E1E"/>
<stop offset="0.224106" stop-color="#3A3737" stop-opacity="0.772912"/>
<stop offset="0.396416" stop-color="#575555" stop-opacity="0.5"/>
<stop offset="0.664935" stop-color="#919090" stop-opacity="0.2"/>
<stop offset="1" stop-color="#C4C4C4" stop-opacity="0"/>
</linearGradient>
<linearGradient id="paint1_linear" x1="496.958" y1="-147.688" x2="12.6506" y2="604.933" gradientUnits="userSpaceOnUse">
<stop stop-color="#FFD644"/>
<stop offset="0.359375" stop-color="#4A96F0"/>
<stop offset="0.671875" stop-color="#FF414D"/>
<stop offset="0.830302" stop-color="#FF7D3C"/>
<stop offset="1" stop-color="#FEDA22"/>
<stop offset="1" stop-color="#FF8E64"/>
</linearGradient>
<radialGradient id="paint2_angular" cx="0" cy="0" r="1" gradientUnits="userSpaceOnUse" gradientTransform="translate(166.217 258) rotate(147.446) scale(425.28 566.127)">
<stop offset="0.0352798" stop-color="#FEDA22"/>
<stop offset="0.325609" stop-color="#5200FF"/>
<stop offset="0.480972" stop-color="#723D57"/>
<stop offset="0.580809" stop-color="#FF3C8E"/>
<stop offset="0.839961" stop-color="#D9F81B"/>
<stop offset="1" stop-color="#FF8E64"/>
</radialGradient>
</defs>
</svg>
