<svg width="379" height="39" viewBox="0 0 379 39" fill="none"
	xmlns="http://www.w3.org/2000/svg">
	<path class="cogSmall" fill-rule="evenodd" clip-rule="evenodd" d="M378.108 6.62958C378.381 6.55632 378.356 6.14892 378.073 6.15635C374.613 6.2472 371.18 7.61301 368.54 10.2538C363.07 15.7234 363.07 24.5915 368.54 30.0611C371.18 32.7019 374.613 34.0677 378.073 34.1585C378.356 34.166 378.381 33.7586 378.108 33.6853C375.812 33.0704 373.642 31.8623 371.841 30.0611C366.371 24.5915 366.371 15.7234 371.841 10.2538C373.642 8.45255 375.812 7.24448 378.108 6.62958Z" fill="#FF8379"/>
	<path class="cogSmall" fill-rule="evenodd" clip-rule="evenodd" d="M0.532047 33.6853C0.258545 33.7586 0.283168 34.166 0.566215 34.1585C4.02634 34.0677 7.45913 32.7019 10.0999 30.0611C15.5696 24.5915 15.5696 15.7234 10.0999 10.2538C7.45913 7.61301 4.02634 6.24721 0.566215 6.15636C0.283168 6.14893 0.258546 6.55632 0.532048 6.62958C2.82766 7.24449 4.99744 8.45255 6.79866 10.2538C12.2683 15.7234 12.2683 24.5915 6.79866 30.0611C4.99744 31.8624 2.82766 33.0704 0.532047 33.6853Z" fill="#FF8379"/>
	<path fill-rule="evenodd" clip-rule="evenodd" d="M34.6042 34.9917C34.2783 34.9026 34.2702 34.452 34.5797 34.3165C39.5215 32.1532 42.9742 27.2198 42.9742 21.48C42.9742 15.7402 39.5215 10.8069 34.5797 8.64353C34.2702 8.50804 34.2783 8.05748 34.6042 7.9684C35.7832 7.64613 37.0243 7.47411 38.3055 7.47411C46.0408 7.47411 52.3115 13.7447 52.3115 21.48C52.3115 29.2153 46.0408 35.486 38.3055 35.486C37.0243 35.486 35.7832 35.3139 34.6042 34.9917Z" fill="#FF8379"/>
	<path fill-rule="evenodd" clip-rule="evenodd" d="M343.343 6.96825C343.669 7.05733 343.677 7.50789 343.368 7.64338C338.426 9.80671 334.973 14.7401 334.973 20.4799C334.973 26.2197 338.426 31.153 343.368 33.3164C343.677 33.4519 343.669 33.9024 343.343 33.9915C342.164 34.3138 340.923 34.4858 339.642 34.4858C331.907 34.4858 325.636 28.2152 325.636 20.4799C325.636 12.7446 331.907 6.47395 339.642 6.47395C340.923 6.47395 342.164 6.64598 343.343 6.96825Z" fill="#FF8379"/>
	<path d="M101.83 34.4358C109.006 33.83 114.642 27.8131 114.642 20.48C114.642 13.147 109.006 7.13014 101.83 6.5243C101.173 6.46881 100.636 7.0089 100.636 7.66858V33.2915C100.636 33.9512 101.173 34.4913 101.83 34.4358Z" fill="#FF8379"/>
	<path d="M276.812 6.26099C269.636 6.86682 264 12.8837 264 20.2167C264 27.5498 269.636 33.5666 276.812 34.1725C277.47 34.228 278.006 33.6879 278.006 33.0282V7.40527C278.006 6.74559 277.47 6.2055 276.812 6.26099Z" fill="#FF8379"/>
	<path d="M71.3242 34.3853C78.2634 33.5515 83.6418 27.6439 83.6418 20.4801C83.6418 13.2879 78.2207 7.36183 71.2417 6.5652C70.4458 6.47435 69.8708 7.25061 70.0931 8.0202C72.8595 17.5967 73.2496 23.5472 70.1844 32.8821C69.927 33.6659 70.5051 34.4837 71.3242 34.3853Z" fill="#FF8379"/>
	<path d="M307.318 6.31154C300.379 7.14528 295 13.0529 295 20.2167C295 27.4089 300.421 33.335 307.4 34.1316C308.196 34.2225 308.771 33.4462 308.549 32.6766C305.783 23.1001 305.393 17.1496 308.458 7.81471C308.715 7.03086 308.137 6.21312 307.318 6.31154Z" fill="#FF8379"/>
	<path d="M139.026 6.47403C146.762 6.47403 153.032 12.7447 153.032 20.4799C153.032 28.2152 146.762 34.4859 139.026 34.4859C128.273 34.4859 132.424 28.2151 132.424 20.4798C132.424 12.7446 128.322 6.47403 139.026 6.47403Z" fill="#FF8379"/>
	<path d="M239.642 34.4859C231.907 34.4859 225.636 28.2152 225.636 20.48C225.636 12.7447 231.907 6.47405 239.642 6.47405C250.395 6.47405 246.244 12.7448 246.244 20.4801C246.244 28.2153 250.347 34.4859 239.642 34.4859Z" fill="#FF8379"/>
	<circle cx="189.22" cy="19.4668" r="14.0059" transform="rotate(55.8125 189.22 19.4668)" fill="#FEDA22"/>
</svg>
