<svg width="415" height="389" fill="none" xmlns="http://www.w3.org/2000/svg"><circle cx="207.22" cy="193.467" r="14.006" transform="rotate(55.813 207.22 193.467)" fill="#FEDA22"/><path fill-rule="evenodd" clip-rule="evenodd" d="M396.107 180.63c.274-.074.249-.481-.034-.474a13.955 13.955 0 00-9.533 4.098c-5.47 5.469-5.47 14.338 0 19.807a13.955 13.955 0 009.533 4.098c.283.007.308-.4.034-.474a13.944 13.944 0 01-6.266-3.624c-5.47-5.469-5.47-14.338 0-19.807a13.944 13.944 0 016.266-3.624zM18.532 207.685c-.273.074-.249.481.034.474a13.958 13.958 0 009.534-4.098c5.47-5.47 5.47-14.338 0-19.807a13.958 13.958 0 00-9.534-4.098c-.283-.007-.307.4-.034.474a13.935 13.935 0 016.267 3.624c5.47 5.469 5.47 14.337 0 19.807a13.944 13.944 0 01-6.267 3.624zM52.604 207.992c-.326-.089-.334-.54-.024-.675 4.941-2.164 8.394-7.097 8.394-12.837 0-5.74-3.453-10.673-8.394-12.836-.31-.136-.302-.587.024-.676a14.031 14.031 0 013.701-.494c7.736 0 14.006 6.271 14.006 14.006s-6.27 14.006-14.006 14.006c-1.28 0-2.522-.172-3.701-.494zM361.343 180.968c.326.089.334.54.025.675-4.942 2.164-8.395 7.097-8.395 12.837 0 5.74 3.453 10.673 8.395 12.836.309.136.301.586-.025.676a14.03 14.03 0 01-3.701.494c-7.735 0-14.006-6.271-14.006-14.006s6.271-14.006 14.006-14.006c1.281 0 2.522.172 3.701.494z" fill="#FF8379"/><path d="M119.83 208.436c7.176-.606 12.812-6.623 12.812-13.956 0-7.333-5.636-13.35-12.812-13.956-.658-.055-1.194.485-1.194 1.145v25.623c0 .659.536 1.199 1.194 1.144zM294.812 180.261c-7.176.606-12.812 6.623-12.812 13.956 0 7.333 5.636 13.35 12.812 13.955.657.056 1.194-.484 1.194-1.144v-25.623c0-.659-.537-1.2-1.194-1.144zM89.324 208.385c6.94-.833 12.318-6.741 12.318-13.905 0-7.192-5.421-13.118-12.4-13.915-.796-.091-1.371.686-1.149 1.455 2.766 9.577 3.156 15.527.091 24.862-.257.784.321 1.602 1.14 1.503zM325.317 180.312c-6.939.833-12.317 6.741-12.317 13.905 0 7.192 5.421 13.118 12.4 13.915.796.09 1.371-.686 1.149-1.455-2.767-9.577-3.157-15.527-.092-24.862.258-.784-.32-1.602-1.14-1.503zM157.026 180.474c7.736 0 14.006 6.271 14.006 14.006s-6.27 14.006-14.006 14.006c-10.753 0-6.602-6.271-6.602-14.006s-4.103-14.006 6.602-14.006zM257.642 208.486c-7.736 0-14.006-6.271-14.006-14.006s6.27-14.006 14.006-14.006c10.753 0 6.602 6.271 6.602 14.006s4.103 14.006-6.602 14.006z" fill="#FF8379"/></svg>